<?xml version="1.0" encoding="utf-8"?>
<!-- Generator: Adobe Illustrator 21.1.0, SVG Export Plug-In . SVG Version: 6.00 Build 0)  -->
<svg version="1.1" id="Layer_1" xmlns="http://www.w3.org/2000/svg" xmlns:xlink="http://www.w3.org/1999/xlink" x="0px" y="0px"
	 viewBox="0 0 70 70" style="enable-background:new 0 0 70 70;" xml:space="preserve">
<style type="text/css">
	.st0{fill:#F44336;fill-opacity:0.5;}
	.st1{fill:#FFCE07;}
</style>
<desc>Made with illustrio</desc>
<g>
	<path class="st0" d="M15.5,13.2l-0.6-0.6v2.5c0,0.3,0.3,0.6,0.6,0.6h3l-0.6-0.6v2.5c0,0.3,0.3,0.6,0.6,0.6s0.6-0.3,0.6-0.6v-2.5
		c0-0.3-0.3-0.6-0.6-0.6h-3l0.6,0.6v-2.5c0-0.3-0.3-0.6-0.6-0.6h-3c-0.3,0-0.6,0.3-0.6,0.6c0,0.3,0.3,0.6,0.6,0.6H15.5z M39.9,62
		l0.6-0.6h-2c-0.3,0-0.6,0.3-0.6,0.6v2l0.6-0.6h-2c-0.3,0-0.6,0.3-0.6,0.6s0.3,0.6,0.6,0.6h2c0.3,0,0.6-0.3,0.6-0.6v-2l-0.6,0.6h2
		c0.3,0,0.6-0.3,0.6-0.6v-2c0-0.3-0.3-0.6-0.6-0.6s-0.6,0.3-0.6,0.6V62z M22,53.3c0.2-0.3,0.1-0.7-0.1-0.9c-0.3-0.2-0.7-0.1-0.9,0.1
		l-2.5,3.5c-0.2,0.3-0.1,0.7,0.1,0.9c0.3,0.2,0.7,0.1,0.9-0.1L22,53.3z M56.2,56.2c0.3,0.2,0.7,0.2,0.9-0.1s0.2-0.7-0.1-0.9
		l-2.6-2.3c-0.3-0.2-0.7-0.2-0.9,0.1s-0.2,0.7,0.1,0.9L56.2,56.2z M13.1,43.1c0-1.9-1.5-3.4-3.4-3.4s-3.4,1.5-3.4,3.4
		c0,1.9,1.5,3.4,3.4,3.4S13.1,45,13.1,43.1z M7.6,43.1c0-1.2,1-2.1,2.1-2.1s2.1,1,2.1,2.1c0,1.2-1,2.1-2.1,2.1S7.6,44.3,7.6,43.1z"
		/>
	<ellipse class="st0" cx="28" cy="7.1" rx="1" ry="1"/>
	<ellipse class="st0" cx="17.2" cy="58.7" rx="0.8" ry="0.8"/>
	<ellipse class="st0" cx="63.2" cy="28.6" rx="0.8" ry="0.8"/>
	<ellipse class="st0" cx="59.8" cy="44.6" rx="1.2" ry="1.3"/>
	<path class="st0" d="M60.6,23.2c0-1.5-1.2-2.6-2.6-2.6s-2.6,1.2-2.6,2.6c0,1.5,1.2,2.6,2.6,2.6S60.6,24.6,60.6,23.2z M56.6,23.2
		c0-0.8,0.6-1.4,1.4-1.4s1.4,0.6,1.4,1.4s-0.6,1.4-1.4,1.4S56.6,23.9,56.6,23.2z M46.5,8.5c0.1-0.3,0-0.7-0.4-0.8
		c-0.3-0.1-0.7,0-0.8,0.4l-1.4,3.7c-0.1,0.3,0,0.7,0.4,0.8c0.3,0.1,0.7,0,0.8-0.4L46.5,8.5z M8.1,26.5c-0.3,0-0.6,0.2-0.7,0.6
		c0,0.3,0.2,0.7,0.6,0.7l2.4,0.2c0.3,0,0.6-0.2,0.7-0.6c0-0.3-0.2-0.7-0.6-0.7L8.1,26.5z"/>
	<g>
		<g transform="translate(23 20)">
			<path class="st1" d="M10.6,13.9c0-0.7-0.6-1.4-1.4-1.4c-0.7,0-1.4,0.6-1.4,1.4c0,0.7,0.6,1.4,1.4,1.4
				C10,15.2,10.6,14.6,10.6,13.9L10.6,13.9z M12.6,20.9c-1.4,0-2.6,0.7-2.6,1.5c0,0.9,1.1,1.5,2.6,1.5c1.4,0,2.4-0.6,2.4-1.5
				C15,21.6,14,20.9,12.6,20.9L12.6,20.9z M12.6,22.7c-0.5,0-0.8-0.2-1.1-0.2c0.3-0.1,0.6-0.1,1.1-0.1s0.8,0.1,1,0.1
				C13.4,22.5,13.1,22.7,12.6,22.7L12.6,22.7z M10.8,12c0.5,0,0.7-0.1,0.7-0.5S11.2,11,10.8,11H8.3c-0.5,0-0.7,0.1-0.7,0.5
				S7.8,12,8.3,12H10.8L10.8,12z M17.8,12h-3.5c-0.5,0-0.7,0.1-0.7,0.5s0.2,0.5,0.7,0.5H15c-0.3,0.2-0.4,0.5-0.4,0.7
				c0,0.1,0.1,0.8,1.1,0.8c1.2,0,1.3-0.7,1.3-0.8c0-0.2,0-0.5-0.4-0.7h1.2c0.5,0,0.7-0.1,0.7-0.5S18.2,12,17.8,12L17.8,12z"/>
			<path class="st1" d="M22.9,9.5c0-6-6-8.7-10.4-8.9l0,0h-0.3h-0.1l0,0C7.6,0.8,1.4,3.5,1.4,9.5c-0.3,0.3-0.9,1-0.9,2.6
				c0,3.4,1.2,4.6,2,5c0.1,3.9,2.3,7.2,5.7,9c1.4,1.4,3.2,1.9,4.3,1.9l0,0c0.9,0,2.8-0.4,3.9-1.6c3.4-1.8,5.5-5.4,5.6-9.4
				c0.7-0.4,1.9-1.5,1.9-4.9C24,10.5,23.4,9.8,22.9,9.5L22.9,9.5z M21.4,16c-0.2,0-0.6,0.3-0.6,0.7c0,3.7-1.8,6.9-5,8.5l-0.1,0.1
				c-0.9,1-2.4,1.3-3.2,1.4c-0.3,0-0.3,0-0.4,0.1c-0.8-0.1-2.2-0.5-3.1-1.5l-0.1-0.1c-3.2-1.6-5-4.9-5-8.5c0-0.3-0.4-0.6-0.6-0.7
				c0,0-1.4-0.4-1.4-3.9C1.9,11.4,2,11,2,10.9l2,2.7C4.1,13.7,4.2,14,4.6,14h0.2C5.3,14,5,13.4,5,13.1v-2c3-0.3,6.1-1.6,6.9-5.1
				c1,0.7,2.8,1.5,5.7,1.5h0.2c0,0,0.4,0,0.6,0.2C18.6,7.8,19,8.3,19,9.6v3.5c0,0.4,0.2,0.9,0.6,0.9h0.9c0.2,0,0.5-0.3,0.6-0.4
				l1.4-2.2c0,0.2,0.1,0.4,0.1,0.7C22.7,15.6,21.3,16,21.4,16L21.4,16z"/>
			<path class="st1" d="M11.2,18h-0.4c-0.3,0-0.5,0.1-0.5,0.5s0.2,0.5,0.5,0.5H11c0.2,0,0.9,0.9,1.6,0.9c1,0,1.7-1,1.8-1.1
				c0.3-0.2,0.3-0.4,0.2-0.6C14.3,18,14.1,18,14,18h-0.5c-0.3,0-0.7,0.2-0.7,0.6c0,0,0-0.1,0,0c-0.1,0.1-0.2,0.1-0.2,0.1
				c-0.2,0-0.6-0.2-0.8-0.5C11.7,18,11.4,18,11.2,18L11.2,18z"/>
		</g>
	</g>
</g>
</svg>
