<?xml version="1.0" encoding="UTF-8"?>
<svg width="569px" height="82px" viewBox="0 0 569 82" version="1.1" xmlns="http://www.w3.org/2000/svg" xmlns:xlink="http://www.w3.org/1999/xlink">
    <!-- Generator: Sketch 49.3 (51167) - http://www.bohemiancoding.com/sketch -->
    <title>Should I Say That?</title>
    <desc>Created with Sketch.</desc>
    <defs></defs>
    <g id="Page-1" stroke="none" stroke-width="1" fill="none" fill-rule="evenodd">
        <path d="M16.58,79.66 L16.03,79.11 L14.82,79.11 L13.83,79.44 L12.51,79.11 L11.41,79.11 L7.67,75.92 L7.34,75.37 L6.79,75.37 L6.24,74.49 L6.35,73.17 L5.91,72.4 L5.91,71.41 L6.35,70.75 L6.35,69.98 L6.13,69.65 L6.35,67.78 L6.79,69.76 L7.34,69.76 L7.34,70.2 L7.89,70.42 L8.11,70.97 L8.33,70.42 L8.33,67.78 L9.32,66.68 L9.98,64.92 L10.42,65.25 L11.41,64.92 L10.86,65.69 L10.53,65.58 L10.86,66.57 L11.41,66.57 L11.85,67.01 L11.85,68 L11.08,68.33 L11.85,68.33 L11.85,69.98 L12.4,70.42 L12.84,73.94 L12.07,74.27 L12.07,74.93 L12.84,75.59 L12.84,74.93 L13.28,74.6 L13.5,74.93 L14.27,74.93 L13.94,74.49 L15.26,73.17 L17.13,69.65 L17.9,64.37 L17.02,58.1 L17.46,57.77 L16.58,54.91 L16.03,54.91 L16.03,52.27 L15.81,51.5 L15.26,51.72 L15.26,48.86 L14.27,47.54 L14.27,46 L13.5,44.57 L13.06,44.79 L13.06,42.59 L12.29,41.05 L12.51,40.17 L12.07,40.17 L11.52,39.62 L10.42,37.2 L11.08,36.65 L11.08,35.44 L10.53,34.89 L9.87,35.11 L9.65,33.46 L8.88,33.46 L8.33,33.68 L9.43,32.47 L8.88,31.48 L8.11,31.7 L8.11,31.26 L7.34,31.26 L6.35,29.5 L6.9,29.06 L7.12,28.07 L6.35,28.07 L5.91,28.29 L6.24,27.41 L5.91,27.08 L6.68,26.53 L5.91,26.09 L6.24,25.76 L5.69,25.76 L5.36,24.77 L4.92,24.33 L4.15,24.77 L4.92,23.34 L4.92,22.9 L4.15,23.12 L3.71,20.37 L3.49,21.91 L3.16,22.13 L2.17,21.14 L1.73,21.14 L1.07,19.6 L0.74,17.73 L0.74,15.75 L0.52,14.87 L0.74,14.32 L0.74,11.79 L0.3,12.56 L1.07,10.58 L1.07,9.26 L2.17,6.62 L2.17,7.17 L2.72,7.17 L3.93,5.41 L4.48,5.41 L3.71,7.17 L6.9,3.65 L5.25,4.86 L4.7,4.86 L5.25,3.87 L3.71,5.08 L3.49,4.64 L3.93,4.09 L4.92,3.65 L6.24,3.65 L7.12,2.44 L8,2 L8.33,2.44 L12.07,2.44 L12.84,3.1 L14.16,2.66 L17.02,3.65 L19.99,5.41 L21.75,7.17 L23.18,10.03 L24.17,11.02 L23.84,12.45 L23.4,12.01 L22.85,12.34 L22.74,10.25 L22.19,10.25 L22.19,9.59 L21.53,8.93 L21.86,10.58 L21.31,11.68 L20.43,10.8 L19.99,11.02 L19,10.25 L19,9.59 L18.01,9.59 L18.01,9.04 L17.35,8.71 L15.59,6.18 L13.83,6.18 L12.51,6.4 L11.41,7.61 L10.42,8.16 L8.88,11.02 L7.89,14.98 L8.11,17.73 L8.88,20.59 L10.42,24.33 L11.08,25.43 L11.08,26.31 L12.07,27.85 L12.07,28.29 L13.28,29.94 L13.5,31.48 L13.83,31.7 L13.83,32.25 L14.27,32.03 L14.6,33.68 L15.04,33.46 L15.04,34.01 L15.59,34.45 L15.59,35.44 L16.03,35.66 L15.81,36.21 L16.03,36.65 L16.58,36.43 L17.02,37.75 L18.45,40.61 L18.01,40.83 L19,41.82 L19,42.37 L20.76,45.56 L20.76,46 L21.2,46.77 L21.2,47.54 L21.75,47.32 L21.2,48.31 L21.86,48.31 L21.86,50.07 L22.74,51.5 L22.3,51.83 L22.85,52.49 L22.74,52.93 L23.18,52.93 L23.4,54.91 L23.73,55.24 L23.73,56.34 L24.17,57.11 L24.39,58.1 L24.17,58.87 L24.61,58.87 L24.61,59.86 L24.94,60.08 L24.94,60.52 L24.61,60.85 L25.16,61.51 L24.72,62.83 L25.38,62.83 L25.16,63.6 L25.38,64.81 L25.38,68 L24.94,68.99 L25.38,69.21 L24.94,70.75 L24.94,72.4 L24.39,73.17 L23.84,73.17 L23.84,75.26 L22.96,76.58 L22.41,76.91 L22.74,77.35 L22.19,77.35 L20.76,78.12 L19.66,78.12 L18.23,79.66 L18.23,80.76 L16.58,79.66 Z M8.66,71.96 L8.66,72.73 L8.88,72.4 L8.66,71.19 L8.33,71.74 L8.66,71.96 Z M16.58,49.52 L16.69,50.07 L17.02,49.74 L16.69,49.08 L16.58,49.52 Z M5.36,69.76 L5.69,69.43 L5.69,69.98 L5.36,70.42 L5.36,69.76 Z M5.69,70.75 L5.91,70.42 L5.69,72.18 L5.69,70.75 Z M11.85,72.4 L12.07,72.73 L11.85,71.96 L11.85,72.4 Z M11.52,36.65 L11.41,36.98 L11.52,37.42 L11.52,36.65 Z M33.6361112,37.86 L33.3061112,37.42 L33.3061112,35.66 L33.8561112,35.11 L33.6361112,33.9 L32.9761112,33.13 L32.6461112,32.25 L33.3061112,31.37 L32.9761112,29.06 L32.6461112,29.5 L32.6461112,28.84 L34.1861112,27.74 L34.9561112,26.53 L34.4061112,24.99 L34.4061112,26.86 L33.7461112,27.3 L32.9761112,22.79 L32.3161112,22.57 L31.8761112,21.69 L31.8761112,20.81 L32.6461112,21.69 L32.9761112,20.59 L32.3161112,20.59 L32.6461112,18.83 L32.6461112,12.45 L32.2061112,11.57 L32.2061112,10.25 L32.6461112,10.58 L32.6461112,8.93 L31.8761112,9.37 L31.6561112,8.38 L31.2161112,8.16 L31.8761112,7.72 L31.8761112,6.51 L31.6561112,5.52 L31.6561112,3.1 L33.6361112,3.1 L34.4061112,3.32 L35.8361112,2.88 L36.4961112,3.32 L37.7061112,3.32 L38.3661112,3.87 L39.1361112,14.54 L40.3461112,22.9 L40.3461112,24.99 L40.8961112,27.3 L40.8961112,29.72 L56.8461112,29.72 L57.1761112,28.51 L56.5161112,27.96 L56.8461112,24.77 L57.1761112,24.22 L57.1761112,22.79 L56.8461112,23.23 L57.1761112,22.24 L57.1761112,18.28 L56.8461112,17.95 L57.3961112,17.62 L57.9461112,14.87 L57.9461112,13.66 L57.5061112,13.88 L58.0561112,13.11 L57.5061112,11.13 L57.1761112,8.6 L57.5061112,6.51 L57.9461112,6.07 L58.2761112,2.66 L58.9361112,2.66 L59.3761112,1.89 L63.1161112,1.89 L63.8861112,3.1 L63.8861112,22.02 L63.5561112,24.55 L63.2261112,24.99 L63.5561112,25.65 L63.5561112,32.47 L64.4361112,32.8 L64.2161112,33.13 L64.4361112,34.67 L65.6461112,35 L64.7661112,35.66 L64.1061112,35.66 L63.5561112,36.65 L63.5561112,37.42 L63.2261112,37.86 L63.5561112,38.19 L63.5561112,40.94 L63.2261112,41.71 L63.5561112,42.81 L63.5561112,45.01 L63.2261112,45.56 L63.2261112,47.43 L63.7761112,47.43 L63.2261112,48.2 L63.7761112,48.53 L63.1161112,48.97 L63.5561112,49.41 L63.5561112,50.07 L63.2261112,49.52 L63.5561112,52.38 L63.5561112,58.98 L63.8861112,59.2 L63.0061112,59.97 L63.5561112,60.52 L63.8861112,62.94 L63.5561112,63.82 L63.5561112,70.09 L64.1061112,71.19 L63.5561112,73.83 L63.2261112,73.17 L63.0061112,73.83 L62.6761112,74.05 L62.4561112,75.26 L61.5761112,74.6 L61.5761112,73.17 L61.1361112,73.61 L60.4761112,76.14 L59.4861112,73.17 L58.9361112,73.61 L58.7161112,72.4 L58.2761112,72.18 L58.8261112,71.74 L57.8361112,71.52 L57.9461112,69.76 L58.2761112,69.1 L57.9461112,68.88 L57.8361112,67.23 L58.0561112,66.79 L57.8361112,66.35 L57.8361112,63.49 L57.1761112,63.82 L57.1761112,66.13 L56.8461112,69.54 L57.6161112,70.97 L57.1761112,71.85 L56.7361112,74.82 L56.2961112,74.05 L55.3061112,74.6 L54.5361112,73.83 L54.5361112,69.32 L54.9761112,68.55 L54.5361112,67.89 L54.5361112,63.27 L54.8661112,62.61 L54.8661112,58.76 L54.3161112,57.33 L54.5361112,56.34 L54.3161112,54.91 L54.5361112,54.58 L54.0961112,53.37 L55.3061112,52.49 L55.3061112,51.17 L54.5361112,50.29 L54.3161112,47.1 L53.9861112,46.55 L54.5361112,45.56 L55.1961112,45.56 L55.3061112,44.35 L54.8661112,43.91 L54.8661112,38.41 L54.3161112,37.42 L54.8661112,37.2 L54.8661112,35.99 L50.2461112,36.65 L48.8161112,36.43 L41.2261112,36.43 L41.7761112,38.41 L42.2161112,42.04 L41.7761112,43.47 L42.1061112,43.91 L42.3261112,46.66 L42.1061112,47.76 L42.4361112,48.97 L42.4361112,58.43 L43.0961112,59.42 L42.3261112,61.4 L43.0961112,63.49 L42.4361112,65.03 L43.0961112,65.8 L42.4361112,66.68 L43.0961112,67.12 L42.4361112,67.23 L43.3161112,69.21 L42.8761112,71.19 L43.0961112,71.52 L42.8761112,72.4 L42.8761112,73.83 L42.3261112,75.04 L42.8761112,75.04 L42.8761112,75.7 L42.1061112,76.91 L42.1061112,77.46 L42.3261112,77.79 L42.1061112,78.67 L42.8761112,78.23 L42.2161112,79.11 L41.4461112,81.53 L41.1161112,80.32 L40.5661112,80.32 L40.8961112,80.1 L40.8961112,79.55 L40.3461112,79.88 L40.5661112,79.33 L40.3461112,78.23 L39.9061112,78.01 L39.9061112,79.88 L39.6861112,80.76 L39.2461112,79.11 L38.8061112,79.11 L39.0261112,77.24 L38.8061112,77.79 L38.3661112,77.79 L38.5861112,76.91 L37.2661112,76.91 L37.7061112,76.14 L37.9261112,75.04 L37.2661112,75.04 L37.1561112,72.18 L36.4961112,73.17 L37.1561112,73.61 L37.1561112,76.03 L36.1661112,75.04 L35.9461112,76.47 L35.6161112,76.14 L34.9561112,77.24 L34.8461112,76.03 L34.4061112,75.7 L34.1861112,74.05 L33.7461112,73.61 L33.7461112,71.63 L34.9561112,69.76 L34.4061112,69.76 L34.1861112,69.32 L34.9561112,68.11 L34.9561112,67.23 L34.4061112,68.11 L33.7461112,67.56 L33.7461112,65.14 L33.3061112,63.27 L33.3061112,56.12 L33.6361112,55.68 L33.6361112,53.92 L34.0761112,52.27 L33.6361112,51.72 L33.6361112,47.43 L34.1861112,47.1 L34.7361112,47.32 L34.9561112,46 L35.6161112,46 L35.9461112,44.24 L34.9561112,44.57 L34.9561112,43.91 L34.1861112,43.47 L34.4061112,44.35 L34.1861112,44.9 L34.1861112,46 L33.7461112,45.78 L33.6361112,44.9 L33.6361112,43.14 L34.2961112,42.59 L33.7461112,42.26 L33.3061112,42.48 L33.7461112,40.28 L34.4061112,39.73 L35.1761112,39.73 L34.8461112,39.07 L34.1861112,39.07 L33.7461112,38.63 L33.3061112,40.06 L33.3061112,38.41 L34.8461112,36.43 L34.8461112,36.87 L34.9561112,36.1 L34.4061112,35.66 L33.8561112,35.66 L33.6361112,37.86 Z M56.8461112,57.11 L56.5161112,57.33 L56.9561112,58.32 L57.5061112,57.77 L57.5061112,55.68 L56.8461112,55.68 L56.8461112,57.11 Z M57.1761112,63.49 L57.8361112,62.94 L57.8361112,61.62 L57.5061112,61.4 L57.5061112,60.52 L56.8461112,60.63 L57.1761112,60.85 L56.8461112,61.18 L56.8461112,62.28 L57.6161112,62.83 L57.1761112,63.49 Z M36.1661112,66.13 L36.8261112,66.13 L36.8261112,65.47 L36.4961112,65.14 L36.8261112,65.03 L36.4961112,64.81 L36.4961112,63.82 L36.1661112,64.26 L36.1661112,66.13 Z M57.9461112,74.38 L57.9461112,73.83 L58.2761112,74.05 L59.3761112,73.83 L58.9361112,75.04 L57.9461112,74.38 Z M36.4961112,70.31 L36.4961112,72.62 L37.1561112,71.74 L36.4961112,70.31 Z M36.4961112,69.1 L36.8261112,69.32 L37.2661112,68.55 L36.8261112,68.33 L36.4961112,68.55 L36.4961112,69.1 Z M34.4061112,38.19 L34.8461112,38.63 L35.1761112,36.98 L34.4061112,38.19 Z M36.4961112,43.69 L36.4961112,44.9 L36.9361112,44.9 L36.4961112,43.69 Z M37.9261112,79 L38.4761112,79.55 L37.7061112,79.55 L37.9261112,79 Z M34.9561112,34.78 L34.8461112,35.22 L35.3961112,34.78 L34.9561112,34.34 L34.9561112,34.78 Z M36.1661112,53.92 L36.1661112,54.47 L36.8261112,55.13 L36.1661112,53.92 Z M42.8761112,76.47 L43.0961112,76.14 L42.8761112,77.79 L42.8761112,76.47 Z M55.3061112,61.62 L55.3061112,62.28 L55.7461112,62.06 L55.3061112,61.62 Z M56.1861112,65.91 L56.5161112,65.14 L56.5161112,64.26 L56.1861112,65.91 Z M65.4261112,34.34 L64.9861112,33.9 L65.6461112,33.9 L65.4261112,34.34 Z M57.1761112,53.37 L57.5061112,53.92 L57.8361112,53.7 L57.1761112,53.37 Z M35.5061112,43.36 L35.9461112,42.81 L35.9461112,42.26 L35.5061112,43.36 Z M36.8261112,66.68 L36.8261112,67.23 L37.1561112,66.35 L36.8261112,66.68 Z M36.1661112,55.9 L36.1661112,56.34 L36.4961112,56.78 L36.1661112,55.9 Z M42.4361112,73.5 L42.3261112,73.83 L42.4361112,74.6 L42.4361112,73.5 Z M102.282222,67.89 L101.402222,71.41 L100.962222,71.41 L99.8622224,73.94 L99.4222224,74.49 L98.4322224,76.36 L97.9922224,76.36 L96.5622224,78.56 L96.0122224,79.11 L94.6922224,79.11 L94.2522224,78.67 L93.8122224,79.11 L91.0622224,78.89 L90.8422224,78.56 L90.0722224,78.56 L89.6322224,78.01 L89.4122224,78.34 L88.4222224,78.01 L87.8722224,77.24 L87.1022224,76.91 L86.3322224,76.91 L86.3322224,76.36 L85.0122224,76.36 L83.2522224,75.15 L80.9422224,72.51 L80.9422224,72.07 L79.8422224,70.42 L79.2922224,70.42 L79.1822224,69.87 L78.6322224,68.99 L78.0822224,68.77 L78.4122224,68.44 L76.8722224,65.69 L76.2122224,65.03 L76.7622224,64.48 L75.5522224,62.94 L74.8922224,61.07 L74.4522224,58.43 L74.2322224,55.68 L73.7922224,55.13 L73.6822224,53.48 L74.2322224,52.49 L73.0222224,50.51 L72.4722224,49.96 L72.3622224,45.89 L72.0322224,45.34 L72.2522224,45.01 L72.2522224,43.91 L71.7022224,42.92 L72.1422224,40.72 L71.4822224,38.85 L71.9222224,38.41 L72.3622224,38.41 L72.6922224,38.96 L72.6922224,37.86 L72.3622224,36.98 L72.4722224,34.78 L72.6922224,35.33 L73.7922224,35.33 L73.7922224,34.78 L73.1322224,34.23 L73.6822224,33.68 L74.2322224,34.01 L74.1222224,30.16 L75.0022224,29.28 L74.1222224,29.39 L75.5522224,28.51 L75.5522224,27.41 L75.0022224,27.74 L74.8922224,26.86 L75.2222224,26.64 L74.7822224,26.31 L75.3322224,25.65 L75.7722224,26.31 L76.2122224,25.76 L75.8822224,24.99 L76.3222224,24.99 L76.6522224,25.21 L76.8722224,24.11 L76.1022224,24.55 L76.5422224,22.68 L75.5522224,22.79 L75.7722224,22.35 L77.5322224,20.15 L75.9922224,20.15 L75.6622224,19.93 L75.4422224,20.48 L75.0022224,20.04 L74.5622224,21.03 L74.3422224,20.15 L74.2322224,15.75 L75.3322224,14.98 L75.6622224,14.43 L75.2222224,14.43 L75.8822224,12.89 L75.5522224,12.56 L76.4322224,10.58 L76.1022224,12.23 L76.9822224,11.13 L76.9822224,9.81 L77.5322224,9.48 L77.9722224,8.71 L78.6322224,8.71 L78.6322224,7.61 L79.6222224,7.06 L80.0622224,7.06 L81.1622224,6.18 L81.1622224,6.73 L82.1522224,6.18 L82.1522224,6.84 L81.1622224,7.72 L81.4922224,8.38 L82.2622224,7.28 L82.2622224,7.83 L83.3622224,7.61 L85.3422224,5.96 L87.1022224,5.19 L88.2022224,4.86 L89.7422224,3.98 L90.8422224,4.31 L90.6222224,4.86 L91.0622224,4.53 L92.8222224,4.31 L94.4722224,4.31 L94.9122224,4.53 L97.7722224,4.53 L98.4322224,5.08 L98.4322224,5.96 L98.8722224,5.96 L100.082222,7.28 L100.082222,8.38 L100.412222,7.72 L101.622222,9.37 L101.072222,10.25 L102.062222,9.81 L102.062222,10.58 L103.492222,12.56 L104.262222,14.65 L104.372222,15.53 L104.592222,16.08 L105.142222,16.63 L105.252222,17.73 L105.582222,17.95 L105.802222,19.05 L105.692222,19.38 L105.692222,19.93 L106.132222,19.93 L106.682222,20.48 L106.792222,22.35 L106.242222,23.12 L107.012222,22.79 L107.122222,23.56 L107.452222,24.11 L107.562222,25.76 L108.002222,25.54 L107.562222,26.31 L108.112222,27.96 L108.222222,30.71 L108.552222,31.59 L108.772222,35.88 L108.442222,40.28 L107.782222,41.05 L108.662222,41.71 L108.222222,47.21 L108.332222,48.64 L107.892222,50.29 L107.892222,51.06 L107.342222,52.49 L108.002222,52.16 L107.562222,53.26 L107.452222,54.58 L107.122222,55.13 L107.452222,55.68 L106.682222,57.88 L106.132222,57.33 L106.242222,58.54 L103.822222,65.69 L103.052222,66.57 L102.282222,67.89 Z M87.7622224,71.96 L89.4122224,73.61 L91.1722224,71.74 L98.1022224,55.68 L99.9722224,47.21 L99.8622224,45.56 L100.412222,41.49 L100.192222,40.94 L100.302222,35.99 L100.852222,34.56 L101.072222,32.69 L100.522222,32.91 L100.302222,28.84 L100.082222,28.51 L99.6422224,24.44 L99.2022224,23.12 L99.0922224,21.25 L99.4222224,20.7 L98.8722224,21.03 L98.5422224,20.48 L98.5422224,19.93 L99.2022224,19.93 L98.4322224,17.95 L98.3222224,14.98 L97.8822224,14.98 L97.9922224,16.08 L97.2222224,14.1 L96.6722224,14.1 L96.8922224,13.11 L98.1022224,13.55 L98.9822224,12.23 L98.1022224,11.35 L98.4322224,10.91 L98.4322224,9.48 L97.9922224,8.93 L97.3322224,9.48 L97.5522224,8.93 L97.0022224,8.93 L96.6722224,8.71 L97.0022224,8.38 L96.5622224,7.83 L96.0122224,8.16 L96.0122224,7.72 L96.6722224,7.28 L96.1222224,6.18 L95.9022224,6.51 L95.5722224,6.18 L94.5822224,6.73 L92.4922224,7.17 L91.9422224,8.05 L89.7422224,8.93 L89.3022224,9.48 L88.8622224,9.48 L88.5322224,10.25 L86.6622224,11.46 L86.6622224,12.01 L85.7822224,12.78 L83.9122224,16.3 L81.9322224,22.13 L81.9322224,23.12 L81.2722224,23.89 L81.6022224,24.11 L79.9522224,33.46 L79.9522224,35.33 L79.5122224,38.63 L79.8422224,45.89 L79.6222224,46.66 L79.8422224,47.54 L80.0622224,50.51 L80.7222224,52.16 L80.7222224,53.26 L82.2622224,59.86 L85.5622224,68.77 L85.5622224,69.32 L86.1122224,69.32 L86.1122224,69.87 L86.5522224,70.42 L87.2122224,70.75 L87.7622224,71.96 Z M102.832222,35.66 L102.942222,37.53 L104.042222,36.21 L102.942222,36.21 L103.492222,35.11 L103.822222,34.01 L102.722222,34.56 L102.942222,35.33 L102.832222,35.66 Z M102.172222,50.73 L102.172222,51.28 L102.502222,51.06 L102.832222,48.09 L101.952222,49.74 L102.062222,51.28 L102.172222,50.73 Z M72.5822224,42.26 L73.0222224,43.91 L74.0122224,42.04 L73.1322224,42.37 L72.9122224,41.71 L72.5822224,42.26 Z M72.9122224,32.91 L72.9122224,32.14 L73.4622224,31.59 L73.9022224,32.14 L73.2422224,33.68 L72.9122224,32.91 Z M73.4622224,27.96 L74.0122224,27.41 L74.0122224,28.51 L73.5722224,29.94 L73.4622224,27.96 Z M101.732222,23.89 L102.172222,24.44 L102.172222,22.79 L101.842222,22.68 L101.732222,23.89 Z M75.0022224,21.8 L74.8922224,21.25 L75.6622224,21.03 L75.9922224,21.25 L75.5522224,21.58 L75.2222224,22.68 L75.0022224,21.8 Z M102.722222,45.56 L103.052222,46.99 L102.942222,44.79 L102.392222,44.79 L102.502222,46.11 L102.722222,45.56 Z M105.802222,22.13 L105.802222,22.68 L106.352222,22.68 L105.692222,21.25 L105.472222,21.58 L105.802222,22.13 Z M73.6822224,45.89 L73.9022224,46.66 L74.2322224,46.11 L74.1222224,45.01 L73.6822224,45.89 Z M101.952222,25.21 L102.282222,26.09 L102.832222,25.76 L101.952222,25.21 Z M99.3122224,18.83 L99.9722224,19.93 L99.2022224,17.18 L99.3122224,18.83 Z M82.9222224,6.51 L83.4722224,6.51 L83.3622224,7.28 L83.0322224,7.61 L82.9222224,6.51 Z M75.8822224,23.89 L75.8822224,24.66 L75.3322224,24.99 L75.8822224,23.89 Z M74.4522224,28.51 L74.7822224,27.96 L74.7822224,28.51 L74.4522224,29.06 L74.4522224,28.51 Z M73.3522224,26.09 L73.6822224,25.76 L73.6822224,26.31 L73.3522224,26.64 L73.3522224,26.09 Z M99.4222224,16.08 L99.0922224,16.63 L99.7522224,16.63 L99.4222224,16.08 Z M102.832222,31.59 L103.382222,31.59 L102.722222,31.04 L102.832222,31.59 Z M108.112222,34.01 L107.892222,34.56 L108.442222,34.23 L108.112222,34.01 Z M87.6522224,58.43 L87.9822224,58.76 L87.4322224,58.76 L87.6522224,58.43 Z M137.598334,45.78 L138.038334,46.88 L138.368334,44.79 L137.598334,44.79 L137.708334,44.35 L137.378334,43.47 L137.598334,42.59 L137.818334,43.25 L138.368334,42.59 L138.258334,41.27 L137.598334,41.05 L138.258334,37.86 L138.148334,34.89 L138.918334,34.01 L138.918334,33.57 L138.588334,33.35 L138.038334,32.14 L137.818334,30.71 L138.148334,29.94 L138.368334,30.27 L138.368334,29.72 L138.148334,29.39 L138.258334,28.29 L137.818334,28.29 L137.818334,27.74 L138.588334,27.63 L138.588334,26.64 L138.038334,27.19 L137.708334,26.86 L138.258334,26.53 L138.478334,25.87 L137.928334,25.76 L137.708334,26.2 L137.598334,24.55 L138.478334,23.78 L138.918334,24.99 L139.798334,24.33 L140.128334,24.55 L140.128334,23.34 L139.688334,23.67 L139.798334,23.12 L139.688334,21.91 L140.018334,22.13 L140.018334,21.58 L139.138334,21.69 L139.138334,23.45 L138.478334,21.69 L137.928334,21.8 L137.928334,21.03 L137.488334,21.58 L137.598334,20.81 L137.158334,19.05 L137.048334,16.41 L137.268334,15.2 L136.938334,14.54 L136.828334,12.56 L136.388334,13 L136.278334,11.79 L136.718334,11.24 L136.938334,10.25 L137.818334,10.47 L137.928334,11.02 L138.588334,9.15 L138.588334,10.14 L138.918334,9.59 L139.578334,9.59 L139.578334,11.02 L140.128334,10.91 L140.128334,8.82 L139.578334,9.15 L140.238334,8.05 L141.008334,7.94 L141.228334,8.38 L141.778334,8.27 L141.448334,8.71 L142.328334,9.37 L142.328334,9.92 L142.878334,9.59 L142.548334,10.36 L143.318334,13 L143.428334,15.75 L143.098334,14.76 L142.988334,16.19 L143.318334,16.74 L143.978334,15.86 L143.428334,17.95 L144.088334,18.5 L144.308334,21.03 L144.858334,20.81 L144.308334,21.47 L144.638334,21.8 L144.308334,23.23 L144.858334,24 L144.528334,25.98 L144.968334,26.97 L144.638334,28.18 L145.298334,29.28 L145.188334,30.16 L145.518334,30.38 L145.078334,30.82 L145.188334,31.59 L144.858334,31.92 L145.188334,32.14 L145.298334,33.02 L144.968334,33.57 L145.518334,34.01 L144.858334,35.33 L145.298334,35.22 L145.408334,37.64 L145.078334,38.08 L145.188334,39.07 L144.968334,39.84 L145.408334,42.59 L145.298334,43.14 L144.968334,42.92 L145.078334,44.9 L144.858334,45.23 L145.298334,46.88 L144.528334,48.42 L145.408334,47.98 L144.858334,49.41 L145.298334,50.51 L144.748334,52.6 L144.858334,53.59 L144.308334,53.37 L143.978334,52.93 L143.978334,54.14 L144.638334,53.81 L144.198334,56.56 L143.868334,55.9 L143.868334,56.89 L144.308334,57 L143.868334,57.88 L143.978334,58.65 L143.758334,59.09 L143.868334,61.07 L143.428334,61.51 L143.428334,62.28 L142.988334,67.23 L142.438334,67.78 L142.438334,68.33 L142.108334,69.32 L142.438334,69.87 L141.888334,70.97 L141.448334,71.08 L140.458334,74.16 L140.018334,74.49 L140.128334,75.15 L138.918334,75.7 L138.478334,76.58 L137.708334,76.58 L137.378334,77.79 L137.048334,77.46 L136.058334,77.57 L136.058334,78.01 L135.508334,78.56 L133.858334,78.67 L133.528334,79.22 L132.538334,78.78 L130.338334,78.67 L129.898334,78.12 L129.128334,78.23 L126.708334,77.35 L126.268334,77.35 L125.938334,77.02 L125.168334,76.91 L124.618334,76.47 L123.958334,76.58 L123.848334,76.03 L123.408334,75.59 L122.858334,75.59 L122.748334,75.04 L122.418334,75.7 L122.308334,75.15 L121.318334,74.27 L120.988334,73.61 L120.548334,73.61 L120.548334,72.73 L119.008334,71.19 L118.898334,69.98 L118.458334,70.09 L118.348334,68.77 L117.578334,67.34 L117.468334,66.13 L116.808334,65.69 L116.038334,62.61 L115.818334,58.65 L115.158334,58.43 L113.948334,45.78 L113.838334,38.41 L113.948334,37.42 L113.838334,35.11 L114.278334,35.44 L114.388334,34.78 L113.838334,34.45 L113.728334,30.49 L113.948334,29.94 L113.948334,29.17 L114.168334,28.73 L114.168334,23.78 L114.608334,22.24 L114.278334,16.3 L114.608334,14.76 L115.048334,9.59 L115.928334,8.38 L115.488334,8.05 L115.708334,6.07 L116.258334,6.07 L117.138334,3.98 L117.578334,4.53 L117.908334,3.54 L118.568334,3.65 L119.008334,3.1 L119.448334,2.77 L119.888334,2.99 L120.218334,2.77 L119.998334,3.54 L120.328334,3.32 L121.758334,3.21 L122.638334,3.87 L123.298334,3.54 L123.298334,4.53 L123.628334,5.3 L123.078334,12.23 L123.078334,13.44 L122.638334,13.99 L122.198334,16.96 L122.308334,19.6 L121.648334,26.09 L121.648334,27.52 L121.538334,28.51 L121.758334,32.69 L121.318334,33.24 L121.868334,33.24 L121.538334,36.43 L121.648334,39.4 L121.318334,39.62 L121.758334,40.17 L121.648334,45.45 L122.198334,47.1 L122.418334,52.71 L122.748334,52.82 L122.198334,53.48 L122.418334,54.25 L122.528334,56.01 L123.078334,55.9 L123.738334,60.3 L123.188334,60.85 L123.738334,61.51 L123.848334,62.72 L124.288334,63.82 L123.848334,64.48 L124.398334,64.37 L125.388334,66.46 L125.388334,67.45 L125.718334,67.67 L125.938334,68.66 L126.268334,68.88 L125.608334,69.54 L126.048334,69.87 L126.378334,69.54 L128.688334,73.83 L129.788334,73.72 L131.328334,72.73 L133.088334,70.64 L134.738334,66.02 L135.178334,65.91 L135.068334,64.26 L135.948334,60.19 L136.608334,58.21 L136.168334,58.21 L136.608334,56.45 L136.828334,57.22 L137.378334,55.13 L137.378334,53.92 L137.598334,53.37 L137.158334,53.48 L136.608334,54.91 L136.608334,53.81 L137.488334,52.38 L136.718334,51.83 L137.708334,50.29 L137.598334,48.97 L137.048334,49.08 L137.598334,44.9 L137.928334,45.45 L137.598334,45.78 Z M140.458334,37.42 L140.568334,38.41 L140.788334,36.76 L140.238334,34.23 L139.688334,33.35 L139.908334,34.45 L139.688334,35.44 L140.348334,36.32 L139.908334,36.32 L139.908334,36.87 L139.468334,37.75 L139.908334,37.64 L140.348334,37.09 L140.458334,37.42 Z M139.248334,46.66 L139.248334,48.86 L139.798334,48.86 L139.798334,48.42 L140.128334,47.87 L139.688334,47.65 L140.018334,47.21 L140.018334,46.66 L139.248334,46.66 Z M138.808334,52.82 L138.918334,54.69 L139.578334,54.58 L139.468334,52.82 L138.808334,52.82 Z M138.258334,59.97 L138.368334,60.96 L138.698334,61.29 L138.918334,60.41 L138.698334,59.97 L138.258334,59.97 Z M141.118334,48.2 L141.558334,49.3 L141.998334,49.08 L141.448334,48.31 L141.448334,47.65 L141.118334,48.2 Z M139.468334,44.46 L139.908334,45.12 L140.568334,44.13 L139.468334,44.46 Z M139.468334,17.51 L139.358334,18.94 L139.908334,18.72 L139.468334,17.51 Z M140.018334,6.51 L140.678334,6.29 L140.458334,7.5 L140.018334,6.51 Z M141.448334,35.55 L141.888334,36.21 L141.778334,34.78 L141.448334,35.55 Z M137.818334,11.57 L138.588334,11.9 L138.148334,11.02 L137.818334,11.57 Z M138.698334,35.77 L139.028334,36.32 L139.248334,35.44 L138.698334,35.77 Z M138.368334,31.7 L138.478334,32.47 L139.138334,33.02 L138.368334,31.7 Z M138.148334,19.05 L138.148334,19.6 L138.368334,19.05 L138.258334,18.06 L138.148334,19.05 Z M139.688334,32.36 L140.128334,32.91 L140.018334,31.92 L139.688334,32.36 Z M137.928334,61.95 L137.928334,62.5 L138.478334,62.28 L137.928334,61.95 Z M138.698334,37.75 L138.808334,38.52 L139.138334,38.96 L138.698334,37.75 Z M141.228334,22.24 L141.228334,22.79 L141.558334,22.46 L141.228334,22.24 Z M154.434445,76.91 L153.004445,76.91 L151.684445,75.37 L151.354445,74.6 L152.454445,73.39 L152.124445,72.4 L151.684445,67.89 L151.904445,43.69 L152.234445,42.92 L152.234445,42.37 L151.904445,42.04 L152.234445,37.75 L152.344445,37.31 L152.014445,35.33 L152.344445,33.57 L152.234445,31.15 L151.904445,30.82 L152.234445,30.6 L151.904445,30.05 L151.574445,27.41 L151.574445,10.8 L151.684445,9.26 L152.014445,8.38 L152.014445,6.62 L151.684445,6.4 L152.234445,5.85 L152.674445,2.88 L152.454445,2.11 L152.674445,1.78 L153.114445,1.78 L153.554445,2.33 L153.994445,1.67 L154.324445,2.22 L154.764445,1.23 L155.204445,1.67 L155.424445,1.23 L155.864445,1.23 L156.194445,1.01 L157.734445,1.23 L158.614445,2.33 L158.834445,4.2 L159.164445,4.97 L159.494445,36.43 L159.824445,36.76 L159.824445,39.07 L159.494445,42.04 L159.274445,42.37 L159.714445,42.7 L159.274445,44.24 L159.494445,44.57 L159.494445,45.12 L159.824445,45.67 L159.494445,46.88 L159.824445,47.21 L159.824445,49.52 L159.494445,51.17 L159.494445,56.23 L159.054445,60.74 L159.274445,63.93 L159.274445,66.79 L159.494445,68.22 L159.164445,69.1 L161.364445,68.22 L162.904445,66.79 L163.234445,67.12 L163.344445,66.79 L166.094445,66.13 L166.314445,66.79 L168.184445,66.79 L170.054445,67.89 L170.054445,69.21 L167.744445,71.96 L166.864445,72.18 L165.654445,72.95 L164.224445,74.6 L163.784445,74.05 L162.024445,76.14 L159.714445,77.46 L159.274445,78.12 L158.064445,77.46 L157.184445,77.13 L154.434445,76.91 Z M177.100556,78.45 L176.220556,77.68 L174.790556,77.68 L174.240556,76.14 L174.240556,74.82 L173.690556,75.04 L173.360556,74.49 L173.360556,61.73 L173.910556,61.07 L173.690556,60.3 L173.690556,54.58 L174.020556,53.59 L173.580556,53.04 L173.910556,52.27 L173.690556,50.84 L174.130556,49.96 L173.690556,49.41 L173.910556,49.08 L173.690556,48.53 L173.690556,38.41 L174.130556,36.76 L173.910556,36.1 L173.910556,4.97 L174.240556,3.32 L174.460556,3.65 L175.340556,3.65 L175.890556,4.09 L176.220556,3.32 L176.550556,4.31 L178.200556,4.2 L178.860556,4.42 L179.410556,4.2 L179.960556,4.42 L180.510556,5.41 L180.730556,4.75 L181.060556,4.97 L181.720556,4.97 L182.270556,5.63 L183.370556,5.96 L183.920556,5.41 L185.680556,6.51 L186.890556,6.51 L189.310556,7.83 L190.190556,8.71 L192.170556,9.92 L193.050556,10.14 L193.050556,11.9 L193.600556,11.9 L194.480556,11.57 L194.700556,11.9 L193.930556,12.12 L194.150556,12.45 L195.030556,12.45 L197.340556,14.76 L198.440556,16.41 L199.320556,18.72 L199.870556,19.27 L199.430556,19.71 L199.870556,20.15 L200.750556,20.15 L200.750556,20.7 L202.730556,24.99 L202.730556,26.42 L203.280556,26.09 L203.280556,26.75 L202.730556,27.52 L203.830556,26.75 L203.830556,28.4 L204.380556,30.93 L204.820556,30.49 L205.370556,31.48 L205.810556,31.48 L206.140556,32.69 L206.140556,33.79 L206.470556,34.01 L206.470556,35.77 L207.570556,35.77 L207.570556,37.75 L207.790556,39.18 L208.450556,38.96 L208.450556,40.61 L207.460556,40.61 L207.790556,42.59 L208.450556,43.47 L208.120556,44.13 L208.120556,46 L208.560556,46.44 L208.120556,47.76 L208.560556,49.08 L208.120556,49.41 L207.570556,48.31 L207.790556,50.29 L208.450556,49.74 L207.790556,51.39 L207.790556,52.93 L207.570556,53.7 L207.570556,55.35 L208.120556,55.13 L207.020556,57.44 L207.350556,57.99 L206.690556,60.3 L205.920556,61.07 L205.920556,62.61 L205.590556,63.38 L205.370556,62.83 L204.050556,66.79 L203.280556,66.79 L203.280556,67.67 L203.830556,67.34 L202.400556,69.32 L201.850556,69.32 L201.300556,70.2 L200.750556,70.53 L200.090556,71.52 L200.420556,71.96 L199.650556,73.28 L199.320556,72.51 L198.550556,74.05 L197.560556,74.49 L196.900556,74.49 L196.020556,76.14 L195.580556,76.14 L195.250556,76.58 L192.060556,78.45 L191.620556,78.45 L187.880556,80.21 L187.000556,80.21 L186.120556,80.65 L185.460556,79.99 L185.130556,80.54 L181.280556,81.09 L177.100556,78.45 Z M188.540556,72.51 L188.540556,73.06 L188.210556,73.5 L189.090556,73.06 L189.310556,71.96 L190.190556,71.08 L190.190556,72.18 L189.860556,72.73 L190.190556,73.06 L190.740556,72.51 L190.740556,71.63 L191.290556,70.53 L191.290556,69.87 L193.930556,67.12 L194.480556,65.36 L195.250556,65.14 L195.250556,65.69 L195.580556,65.36 L196.020556,63.93 L196.790556,63.93 L197.340556,63.16 L197.560556,62.28 L197.010556,62.61 L196.130556,62.28 L197.010556,61.4 L197.890556,59.2 L197.340556,59.75 L196.900556,58.54 L198.110556,54.8 L199.320556,45.78 L199.320556,39.18 L197.560556,31.7 L192.170556,19.27 L191.290556,18.39 L190.520556,16.63 L190.080556,16.63 L188.540556,14.43 L184.800556,10.47 L183.590556,9.59 L183.590556,12.12 L183.370556,12.45 L183.920556,12.89 L183.040556,16.41 L182.490556,17.62 L182.490556,18.94 L182.820556,18.72 L183.040556,18.17 L183.040556,21.25 L182.380556,22.57 L182.820556,23.01 L183.260556,26.31 L182.490556,27.85 L182.490556,31.15 L183.040556,34.01 L183.040556,41.27 L182.820556,42.04 L183.260556,42.48 L182.710556,44.24 L183.040556,44.68 L183.040556,46 L182.820556,46.55 L183.040556,46.88 L183.040556,49.08 L183.480556,49.85 L183.370556,55.13 L182.380556,57.22 L182.930556,58.65 L182.270556,59.97 L182.270556,64.59 L182.490556,61.73 L182.820556,64.26 L183.040556,64.59 L183.040556,65.91 L182.490556,67.12 L182.490556,73.72 L181.830556,75.15 L182.710556,74.71 L183.040556,75.59 L183.590556,75.37 L183.920556,75.59 L184.800556,74.82 L186.450556,74.82 L187.330556,74.27 L187.660556,73.72 L188.100556,73.5 L188.540556,72.51 Z M195.800556,65.91 L196.240556,66.57 L197.450556,64.7 L197.010556,64.26 L196.790556,64.81 L195.800556,65.91 Z M176.000556,75.59 L177.100556,75.92 L177.540556,74.49 L177.100556,74.49 L176.770556,75.04 L176.220556,75.04 L176.000556,75.59 Z M193.600556,68.55 L193.380556,69.87 L193.710556,69.76 L194.480556,68.22 L194.150556,68 L193.600556,68 L193.600556,68.55 Z M176.220556,55.35 L176.220556,56.56 L176.770556,56.56 L177.100556,54.8 L176.220556,55.35 Z M199.320556,23.56 L199.650556,23.89 L199.650556,23.01 L199.320556,22.35 L198.990556,23.01 L199.320556,24.99 L199.320556,23.56 Z M176.000556,73.28 L176.220556,73.72 L176.550556,73.28 L176.550556,72.18 L176.000556,72.18 L176.000556,73.28 Z M201.850556,25.54 L201.850556,26.75 L202.510556,26.75 L201.850556,25.54 Z M176.770556,50.62 L176.220556,51.72 L176.770556,51.39 L177.100556,50.84 L176.770556,50.62 Z M176.000556,69.32 L176.000556,69.87 L176.770556,69.32 L176.000556,69.32 Z M204.710556,35.22 L205.370556,35.55 L205.370556,35 L204.710556,35.22 Z M191.840556,70.86 L191.290556,71.41 L191.950556,71.41 L191.840556,70.86 Z M186.230556,7.06 L186.230556,7.83 L186.670556,7.83 L186.230556,7.06 Z M251.032779,76.14 L250.592779,75.26 L250.372779,77.02 L250.042779,75.59 L249.162779,75.26 L248.832779,75.81 L248.392779,75.81 L248.722779,75.48 L248.172779,74.93 L248.832779,74.16 L248.502779,73.94 L248.392779,72.73 L248.062779,72.51 L248.062779,68.88 L248.392779,67.67 L248.062779,65.69 L247.402779,66.02 L247.732779,65.47 L247.182779,66.02 L247.402779,72.29 L247.182779,71.74 L246.852779,73.72 L246.522779,73.39 L246.302779,72.07 L245.092779,70.64 L245.092779,68.44 L244.542779,67.56 L245.092779,66.02 L245.092779,61.95 L244.872779,60.74 L244.872779,58.76 L245.092779,58.21 L244.872779,57 L244.872779,43.47 L245.092779,42.92 L244.432779,41.71 L244.872779,37.86 L244.872779,27.74 L245.092779,27.19 L244.652779,26.86 L245.642779,24.66 L245.642779,23.89 L245.092779,24.44 L244.872779,23.12 L244.872779,15.2 L245.422779,13.11 L245.422779,11.35 L245.092779,12.01 L244.872779,7.5 L245.972779,7.5 L247.182779,4.97 L246.522779,4.64 L247.182779,4.2 L247.402779,3.54 L248.172779,3.76 L248.832779,3.54 L249.272779,4.2 L251.032779,3.54 L251.472779,3.98 L252.572779,3.98 L253.232779,6.51 L253.672779,20.48 L253.232779,20.92 L253.672779,21.36 L253.672779,32.03 L253.232779,33.24 L253.672779,34.12 L253.672779,44.9 L254.112779,45.34 L253.672779,46.55 L254.442779,47.98 L254.112779,48.31 L254.442779,49.41 L254.112779,50.51 L254.112779,56.34 L254.442779,56.56 L254.112779,56.89 L254.112779,63.16 L253.672779,64.37 L253.672779,65.14 L253.342779,66.13 L254.112779,65.69 L253.672779,69.54 L254.222779,69.98 L253.672779,71.3 L253.672779,75.81 L253.232779,76.14 L253.232779,77.02 L253.012779,77.46 L252.572779,77.24 L252.572779,76.36 L252.022779,76.36 L251.142779,77.46 L251.032779,76.14 Z M248.062779,59.31 L247.402779,60.08 L248.062779,62.17 L248.062779,59.31 Z M245.422779,73.17 L245.092779,71.96 L246.192779,73.06 L245.422779,73.72 L245.422779,73.17 Z M245.642779,68.22 L245.642779,69.87 L246.082779,68.44 L245.642779,68.22 Z M306.595001,79.66 L306.045001,79.11 L304.835001,79.11 L303.845001,79.44 L302.525001,79.11 L301.425001,79.11 L297.685001,75.92 L297.355001,75.37 L296.805001,75.37 L296.255001,74.49 L296.365001,73.17 L295.925001,72.4 L295.925001,71.41 L296.365001,70.75 L296.365001,69.98 L296.145001,69.65 L296.365001,67.78 L296.805001,69.76 L297.355001,69.76 L297.355001,70.2 L297.905001,70.42 L298.125001,70.97 L298.345001,70.42 L298.345001,67.78 L299.335001,66.68 L299.995001,64.92 L300.435001,65.25 L301.425001,64.92 L300.875001,65.69 L300.545001,65.58 L300.875001,66.57 L301.425001,66.57 L301.865001,67.01 L301.865001,68 L301.095001,68.33 L301.865001,68.33 L301.865001,69.98 L302.415001,70.42 L302.855001,73.94 L302.085001,74.27 L302.085001,74.93 L302.855001,75.59 L302.855001,74.93 L303.295001,74.6 L303.515001,74.93 L304.285001,74.93 L303.955001,74.49 L305.275001,73.17 L307.145001,69.65 L307.915001,64.37 L307.035001,58.1 L307.475001,57.77 L306.595001,54.91 L306.045001,54.91 L306.045001,52.27 L305.825001,51.5 L305.275001,51.72 L305.275001,48.86 L304.285001,47.54 L304.285001,46 L303.515001,44.57 L303.075001,44.79 L303.075001,42.59 L302.305001,41.05 L302.525001,40.17 L302.085001,40.17 L301.535001,39.62 L300.435001,37.2 L301.095001,36.65 L301.095001,35.44 L300.545001,34.89 L299.885001,35.11 L299.665001,33.46 L298.895001,33.46 L298.345001,33.68 L299.445001,32.47 L298.895001,31.48 L298.125001,31.7 L298.125001,31.26 L297.355001,31.26 L296.365001,29.5 L296.915001,29.06 L297.135001,28.07 L296.365001,28.07 L295.925001,28.29 L296.255001,27.41 L295.925001,27.08 L296.695001,26.53 L295.925001,26.09 L296.255001,25.76 L295.705001,25.76 L295.375001,24.77 L294.935001,24.33 L294.165001,24.77 L294.935001,23.34 L294.935001,22.9 L294.165001,23.12 L293.725001,20.37 L293.505001,21.91 L293.175001,22.13 L292.185001,21.14 L291.745001,21.14 L291.085001,19.6 L290.755001,17.73 L290.755001,15.75 L290.535001,14.87 L290.755001,14.32 L290.755001,11.79 L290.315001,12.56 L291.085001,10.58 L291.085001,9.26 L292.185001,6.62 L292.185001,7.17 L292.735001,7.17 L293.945001,5.41 L294.495001,5.41 L293.725001,7.17 L296.915001,3.65 L295.265001,4.86 L294.715001,4.86 L295.265001,3.87 L293.725001,5.08 L293.505001,4.64 L293.945001,4.09 L294.935001,3.65 L296.255001,3.65 L297.135001,2.44 L298.015001,2 L298.345001,2.44 L302.085001,2.44 L302.855001,3.1 L304.175001,2.66 L307.035001,3.65 L310.005001,5.41 L311.765001,7.17 L313.195001,10.03 L314.185001,11.02 L313.855001,12.45 L313.415001,12.01 L312.865001,12.34 L312.755001,10.25 L312.205001,10.25 L312.205001,9.59 L311.545001,8.93 L311.875001,10.58 L311.325001,11.68 L310.445001,10.8 L310.005001,11.02 L309.015001,10.25 L309.015001,9.59 L308.025001,9.59 L308.025001,9.04 L307.365001,8.71 L305.605001,6.18 L303.845001,6.18 L302.525001,6.4 L301.425001,7.61 L300.435001,8.16 L298.895001,11.02 L297.905001,14.98 L298.125001,17.73 L298.895001,20.59 L300.435001,24.33 L301.095001,25.43 L301.095001,26.31 L302.085001,27.85 L302.085001,28.29 L303.295001,29.94 L303.515001,31.48 L303.845001,31.7 L303.845001,32.25 L304.285001,32.03 L304.615001,33.68 L305.055001,33.46 L305.055001,34.01 L305.605001,34.45 L305.605001,35.44 L306.045001,35.66 L305.825001,36.21 L306.045001,36.65 L306.595001,36.43 L307.035001,37.75 L308.465001,40.61 L308.025001,40.83 L309.015001,41.82 L309.015001,42.37 L310.775001,45.56 L310.775001,46 L311.215001,46.77 L311.215001,47.54 L311.765001,47.32 L311.215001,48.31 L311.875001,48.31 L311.875001,50.07 L312.755001,51.5 L312.315001,51.83 L312.865001,52.49 L312.755001,52.93 L313.195001,52.93 L313.415001,54.91 L313.745001,55.24 L313.745001,56.34 L314.185001,57.11 L314.405001,58.1 L314.185001,58.87 L314.625001,58.87 L314.625001,59.86 L314.955001,60.08 L314.955001,60.52 L314.625001,60.85 L315.175001,61.51 L314.735001,62.83 L315.395001,62.83 L315.175001,63.6 L315.395001,64.81 L315.395001,68 L314.955001,68.99 L315.395001,69.21 L314.955001,70.75 L314.955001,72.4 L314.405001,73.17 L313.855001,73.17 L313.855001,75.26 L312.975001,76.58 L312.425001,76.91 L312.755001,77.35 L312.205001,77.35 L310.775001,78.12 L309.675001,78.12 L308.245001,79.66 L308.245001,80.76 L306.595001,79.66 Z M298.675001,71.96 L298.675001,72.73 L298.895001,72.4 L298.675001,71.19 L298.345001,71.74 L298.675001,71.96 Z M306.595001,49.52 L306.705001,50.07 L307.035001,49.74 L306.705001,49.08 L306.595001,49.52 Z M295.375001,69.76 L295.705001,69.43 L295.705001,69.98 L295.375001,70.42 L295.375001,69.76 Z M295.705001,70.75 L295.925001,70.42 L295.705001,72.18 L295.705001,70.75 Z M301.865001,72.4 L302.085001,72.73 L301.865001,71.96 L301.865001,72.4 Z M301.535001,36.65 L301.425001,36.98 L301.535001,37.42 L301.535001,36.65 Z M345.981112,72.51 L345.651112,73.06 L345.981112,73.5 L345.431112,73.72 L344.771112,75.15 L344.771112,76.58 L344.111112,75.7 L344.111112,74.6 L343.781112,74.82 L343.671112,76.36 L343.231112,74.82 L342.791112,75.15 L342.681112,75.92 L342.351112,74.82 L342.131112,75.15 L342.131112,76.58 L341.911112,76.91 L341.691112,76.58 L341.361112,77.46 L340.811112,77.46 L340.371112,76.91 L340.041112,77.13 L335.641112,53.37 L335.421112,54.47 L334.651112,55.13 L333.991112,56.12 L332.781112,56.78 L330.691112,58.76 L329.811112,60.63 L328.821112,64.04 L328.821112,64.59 L328.051112,66.13 L328.821112,66.13 L328.821112,67.78 L328.601112,67.45 L327.831112,68 L327.831112,70.09 L327.501112,70.86 L327.501112,72.29 L327.061112,72.29 L327.061112,73.5 L326.731112,75.37 L326.731112,77.13 L326.071112,78.23 L325.631112,76.69 L325.301112,78.01 L324.971112,76.91 L324.311112,76.91 L324.751112,75.7 L325.301112,75.15 L325.301112,74.16 L324.751112,74.16 L324.641112,73.5 L324.201112,74.6 L324.641112,75.37 L324.091112,75.37 L323.651112,78.01 L323.321112,77.68 L323.101112,76.58 L322.661112,77.13 L322.661112,76.36 L322.331112,76.58 L322.001112,75.92 L322.331112,75.7 L322.331112,74.16 L322.881112,74.16 L323.101112,73.72 L323.541112,74.71 L324.091112,73.06 L323.321112,72.29 L323.321112,71.41 L322.661112,70.97 L322.661112,69.87 L323.101112,68.88 L323.101112,68 L323.651112,67.45 L323.651112,64.59 L323.871112,65.03 L324.311112,64.59 L324.751112,62.5 L324.641112,62.17 L325.081112,60.74 L324.751112,60.3 L324.091112,61.62 L324.311112,60.63 L323.981112,59.75 L323.321112,59.75 L322.881112,57.66 L322.881112,54.91 L323.321112,54.25 L322.881112,54.25 L323.101112,53.92 L323.321112,53.15 L323.651112,52.82 L323.651112,50.29 L324.311112,49.3 L323.761112,48.75 L324.311112,45.67 L324.641112,45.12 L324.751112,42.92 L325.301112,42.26 L324.971112,41.49 L325.741112,40.61 L326.071112,41.71 L326.951112,40.61 L327.391112,40.61 L327.941112,39.95 L327.501112,37.42 L326.951112,36.87 L327.061112,37.75 L327.061112,39.73 L326.511112,39.73 L326.951112,39.18 L326.951112,38.3 L326.511112,38.08 L326.511112,37.42 L326.071112,37.42 L326.071112,33.13 L326.291112,31.81 L326.731112,31.15 L326.731112,28.95 L326.511112,27.41 L326.951112,27.19 L327.171112,25.98 L326.951112,21.36 L327.391112,21.36 L327.391112,18.94 L327.831112,16.08 L327.831112,14.32 L328.601112,12.56 L328.601112,6.84 L329.041112,6.29 L329.041112,5.74 L328.601112,5.96 L328.821112,3.98 L328.821112,2.66 L329.371112,1.45 L331.571112,1.45 L331.791112,0.9 L332.121112,1.12 L332.561112,1.12 L333.001112,1.45 L335.091112,1.67 L335.641112,2.33 L336.741112,2.33 L337.621112,3.1 L337.621112,4.31 L338.611112,8.27 L338.611112,10.47 L339.381112,17.95 L339.381112,20.15 L339.601112,20.81 L339.601112,23.78 L340.041112,23.56 L339.821112,24.11 L339.821112,25.65 L340.261112,25.65 L339.821112,26.53 L340.041112,27.19 L340.041112,27.96 L340.261112,29.17 L340.371112,30.82 L340.811112,30.82 L340.921112,33.46 L341.251112,34.45 L341.251112,36.54 L341.691112,37.75 L341.911112,39.4 L341.691112,39.95 L341.911112,40.61 L341.911112,41.49 L342.351112,42.04 L342.131112,45.34 L342.901112,46.55 L342.681112,48.53 L343.231112,48.75 L342.791112,49.96 L342.791112,51.94 L343.341112,52.6 L343.671112,53.37 L343.781112,54.91 L344.331112,55.46 L344.331112,56.23 L344.001112,57.22 L344.441112,61.51 L344.881112,61.07 L344.881112,64.04 L345.431112,63.71 L344.991112,65.69 L345.651112,66.46 L345.981112,67.45 L345.651112,69.87 L345.431112,70.64 L345.431112,71.41 L344.881112,71.41 L345.101112,71.96 L345.981112,70.86 L346.421112,71.96 L346.971112,71.63 L346.421112,73.06 L345.981112,73.5 L345.981112,72.51 Z M335.091112,51.17 L335.641112,51.72 L333.221112,34.89 L332.781112,35.99 L332.121112,40.94 L332.231112,41.49 L331.791112,43.36 L331.791112,44.79 L331.461112,45.89 L331.241112,48.75 L330.691112,50.95 L330.691112,51.5 L333.221112,51.72 L335.091112,51.17 Z M321.231112,68.44 L321.781112,67.34 L321.341112,65.36 L321.781112,65.36 L322.001112,64.92 L322.661112,65.36 L322.661112,64.26 L323.321112,64.26 L322.881112,66.46 L322.441112,67.12 L322.771112,68.77 L322.441112,69.54 L321.561112,69.87 L321.231112,68.44 Z M322.331112,63.16 L322.441112,62.17 L322.441112,60.3 L323.651112,60.74 L323.651112,62.83 L322.441112,63.71 L322.331112,63.16 Z M320.681112,74.6 L320.351112,73.72 L320.791112,73.06 L320.791112,71.85 L322.001112,69.87 L321.561112,72.51 L321.231112,72.95 L321.671112,74.05 L320.681112,74.6 Z M322.881112,79.11 L323.321112,79.11 L323.101112,80.54 L322.661112,80.54 L322.881112,79.11 Z M324.311112,65.91 L324.641112,66.13 L325.081112,65.36 L325.081112,64.92 L324.641112,65.58 L324.311112,65.03 L324.091112,66.46 L324.311112,65.91 Z M322.441112,78.01 L323.101112,77.46 L322.881112,78.78 L322.441112,78.78 L322.441112,78.01 Z M325.301112,49.3 L324.751112,49.96 L325.301112,50.29 L325.301112,49.3 Z M325.631112,66.13 L326.071112,66.13 L326.071112,64.92 L325.631112,66.13 Z M344.551112,72.51 L344.551112,73.94 L344.771112,73.5 L344.551112,72.51 Z M325.301112,71.96 L325.301112,72.84 L325.521112,72.51 L325.301112,71.96 Z M325.741112,38.52 L325.741112,39.18 L325.521112,39.73 L325.741112,38.52 Z M355.557223,77.46 L354.457223,72.84 L354.457223,43.36 L353.137223,40.39 L353.137223,39.73 L352.477223,38.08 L352.477223,37.31 L352.037223,36.76 L351.487223,34.78 L350.937223,33.68 L350.937223,33.24 L349.947223,30.82 L349.947223,29.5 L349.507223,28.95 L349.507223,28.18 L348.517223,25.87 L340.817223,2.99 L341.147223,2.55 L341.147223,1.78 L341.807223,1.78 L341.917223,1.45 L341.587223,1.23 L343.017223,1.23 L343.127223,1.78 L343.897223,1.78 L344.667223,2.33 L345.987223,2.66 L347.527223,2.66 L347.527223,3.1 L349.617223,4.64 L350.277223,6.51 L350.277223,7.83 L350.717223,9.37 L350.717223,10.47 L351.707223,10.91 L352.367223,12.34 L352.917223,13 L352.917223,13.55 L353.247223,14.32 L353.247223,15.31 L354.237223,18.06 L353.687223,19.82 L354.787223,20.15 L354.787223,21.58 L354.457223,22.02 L354.787223,22.35 L354.787223,22.9 L355.557223,23.12 L355.557223,23.89 L355.337223,24.44 L355.557223,24.88 L355.777223,24.44 L355.997223,25.98 L356.767223,26.42 L357.427223,28.62 L358.087223,28.62 L357.757223,29.72 L358.087223,29.94 L363.477223,16.52 L363.917223,16.52 L363.917223,16.08 L364.907223,14.65 L365.347223,12.89 L365.787223,12.45 L365.457223,12.01 L366.007223,11.46 L366.007223,10.91 L367.327223,8.6 L366.887223,10.25 L367.657223,9.37 L367.987223,9.7 L368.647223,7.83 L368.977223,7.61 L369.087223,8.93 L369.967223,9.48 L369.417223,9.92 L369.417223,10.69 L370.077223,11.02 L370.517223,11.79 L370.737223,11.24 L370.957223,13 L370.957223,11.02 L371.727223,9.48 L371.837223,7.06 L371.287223,8.16 L371.287223,9.7 L370.517223,8.71 L371.617223,6.84 L372.277223,6.84 L372.277223,6.07 L371.837223,6.07 L371.837223,5.08 L372.607223,5.52 L372.827223,5.08 L373.267223,5.08 L372.607223,6.4 L372.607223,6.84 L373.047223,6.84 L373.377223,6.07 L373.927223,6.4 L374.477223,5.41 L374.477223,4.64 L374.147223,4.2 L373.927223,5.08 L373.927223,3.76 L374.697223,3.76 L375.467223,2 L375.797223,3.87 L376.457223,2 L376.457223,3.54 L377.337223,2 L377.337223,3.1 L376.787223,3.54 L376.787223,6.95 L376.127223,7.94 L375.907223,9.04 L375.577223,9.26 L375.027223,11.35 L374.367223,11.24 L374.037223,14.43 L373.267223,15.64 L372.937223,15.42 L372.717223,16.08 L372.717223,16.96 L372.387223,17.73 L372.387223,18.5 L371.837223,19.82 L371.507223,20.04 L370.957223,22.02 L369.967223,22.02 L369.747223,24.77 L368.867223,26.31 L367.987223,25.87 L367.327223,27.19 L367.107223,28.18 L366.557223,28.95 L366.557223,29.5 L365.457223,29.28 L364.797223,31.04 L364.687223,32.58 L365.127223,32.36 L365.017223,34.12 L364.467223,33.13 L363.587223,33.57 L363.587223,34.12 L364.467223,34.89 L364.467223,35.77 L363.147223,35.77 L363.037223,37.75 L362.707223,38.85 L363.147223,38.85 L362.707223,40.06 L362.707223,43.14 L363.477223,45.34 L362.927223,45.89 L362.817223,49.41 L362.597223,50.73 L362.487223,55.35 L362.707223,56.67 L362.267223,58.98 L362.597223,59.31 L362.267223,60.08 L362.487223,60.52 L362.157223,61.4 L362.157223,63.6 L362.377223,63.93 L361.827223,65.14 L362.377223,64.48 L362.707223,64.7 L361.827223,65.58 L361.717223,68.77 L360.837223,69.76 L360.837223,71.85 L360.287223,71.85 L360.507223,72.4 L360.397223,74.16 L360.067223,73.5 L359.517223,75.48 L358.527223,75.48 L358.087223,74.71 L358.087223,74.16 L357.867223,74.71 L358.087223,76.25 L357.647223,76.69 L357.317223,75.7 L357.097223,77.02 L356.217223,78.01 L355.557223,77.46 Z M367.877223,12.23 L369.637223,11.46 L369.087223,11.02 L368.647223,9.59 L368.317223,10.58 L367.767223,10.03 L367.107223,10.36 L367.547223,10.8 L367.877223,12.23 Z M369.527223,5.52 L369.197223,5.3 L369.637223,4.86 L370.297223,5.85 L369.527223,6.07 L369.527223,5.52 Z M359.077223,76.58 L358.527223,76.69 L358.967223,75.81 L359.407223,76.25 L359.407223,77.24 L359.077223,76.58 Z M367.657223,8.27 L367.767223,7.5 L367.877223,7.83 L368.207223,7.28 L368.647223,7.06 L367.657223,8.82 L367.657223,8.27 Z M375.467223,5.96 L375.467223,6.51 L376.017223,5.96 L376.017223,4.86 L375.467223,5.96 Z M372.387223,0.57 L372.717223,1.45 L372.277223,2.77 L372.387223,0.57 Z M370.847223,5.52 L370.847223,5.08 L371.397223,5.08 L371.397223,5.85 L370.847223,5.52 Z M376.897223,0.46 L376.567223,0.24 L377.117223,0.24 L377.117223,1.01 L376.897223,1.45 L376.897223,0.46 Z M374.917223,4.31 L375.467223,4.64 L375.687223,4.09 L374.917223,4.31 Z M370.187223,9.92 L370.517223,9.7 L370.187223,11.02 L370.187223,9.92 Z M367.877223,27.19 L368.207223,26.64 L367.877223,28.18 L367.877223,27.19 Z M371.397223,0.35 L371.397223,0.9 L370.957223,0.9 L371.397223,0.35 Z M374.257223,0.9 L374.587223,1.23 L374.257223,1.45 L374.257223,0.9 Z M366.997223,13.99 L366.997223,14.76 L367.217223,15.09 L366.997223,13.99 Z M430.259446,78.12 L430.479446,77.35 L430.479446,76.91 L430.259446,77.35 L429.269446,75.92 L428.719446,76.14 L428.499446,74.93 L427.729446,75.15 L428.059446,73.5 L427.729446,72.18 L427.729446,69.43 L427.289446,70.42 L427.289446,71.19 L426.739446,71.19 L426.739446,71.74 L427.289446,71.74 L427.289446,73.5 L426.299446,74.49 L426.079446,72.73 L425.089446,72.73 L425.089446,72.18 L425.639446,70.64 L425.089446,70.97 L425.639446,69.65 L425.309446,68.77 L425.639446,68.33 L425.309446,68 L425.309446,65.69 L425.639446,65.03 L425.639446,64.26 L425.089446,64.59 L425.309446,63.27 L425.639446,62.61 L425.309446,60.85 L425.309446,59.64 L424.869446,57.88 L425.309446,56.12 L425.309446,54.69 L424.869446,54.69 L424.539446,51.17 L423.879446,33.46 L423.549446,32.58 L423.329446,28.4 L423.659446,27.96 L423.329446,25.76 L423.329446,22.9 L422.559446,17.95 L422.559446,14.43 L422.339446,13.33 L422.339446,10.03 L419.149446,11.24 L417.169446,10.58 L415.959446,9.59 L414.309446,7.5 L413.209446,6.95 L413.209446,5.85 L413.759446,4.97 L414.419446,4.64 L414.749446,4.09 L414.969446,4.42 L415.299446,4.09 L420.139446,3.1 L421.349446,3.1 L422.339446,2.66 L424.319446,2.66 L426.739446,2 L428.059446,2 L428.279446,1.67 L429.269446,1.67 L429.269446,2.11 L430.039446,1.45 L430.809446,1.45 L430.919446,2 L432.239446,1.34 L432.239446,2 L436.199446,2 L437.629446,2.99 L438.069446,2.66 L438.069446,3.1 L439.169446,2.66 L438.619446,3.43 L439.389446,3.1 L439.059446,3.54 L440.379446,3.87 L440.709446,5.08 L441.479446,5.08 L441.809446,6.4 L442.249446,6.73 L441.589446,7.17 L441.369446,7.61 L440.599446,7.61 L440.159446,7.28 L436.199446,7.28 L435.209446,7.83 L434.659446,7.83 L434.989446,7.61 L430.809446,7.61 L429.819446,8.6 L430.039446,10.03 L430.479446,17.51 L430.809446,17.95 L430.919446,21.91 L431.249446,22.35 L431.249446,27.08 L431.469446,27.52 L431.469446,31.26 L431.909446,39.62 L432.239446,40.39 L432.239446,45.01 L432.459446,45.56 L432.459446,50.18 L432.679446,50.51 L432.679446,53.26 L432.899446,53.92 L432.899446,56.12 L432.679446,56.67 L432.899446,58.1 L433.229446,58.65 L432.459446,61.4 L433.229446,61.4 L433.229446,64.04 L432.899446,65.25 L433.229446,66.02 L433.229446,67.78 L432.899446,68.33 L433.229446,68.44 L432.459446,69.76 L433.229446,69.98 L433.229446,70.42 L432.679446,71.19 L432.679446,73.61 L431.909446,75.92 L432.459446,75.37 L432.129446,77.24 L430.809446,77.9 L430.479446,79.11 L430.259446,78.12 Z M427.179446,64.15 L427.729446,65.69 L427.729446,63.27 L427.509446,62.83 L427.179446,64.15 Z M427.399446,68.66 L427.729446,68.99 L428.169446,67.89 L427.399446,68.66 Z M426.299446,71.74 L425.309446,72.18 L425.749446,72.18 L426.299446,71.74 Z M447.975557,37.86 L447.645557,37.42 L447.645557,35.66 L448.195557,35.11 L447.975557,33.9 L447.315557,33.13 L446.985557,32.25 L447.645557,31.37 L447.315557,29.06 L446.985557,29.5 L446.985557,28.84 L448.525557,27.74 L449.295557,26.53 L448.745557,24.99 L448.745557,26.86 L448.085557,27.3 L447.315557,22.79 L446.655557,22.57 L446.215557,21.69 L446.215557,20.81 L446.985557,21.69 L447.315557,20.59 L446.655557,20.59 L446.985557,18.83 L446.985557,12.45 L446.545557,11.57 L446.545557,10.25 L446.985557,10.58 L446.985557,8.93 L446.215557,9.37 L445.995557,8.38 L445.555557,8.16 L446.215557,7.72 L446.215557,6.51 L445.995557,5.52 L445.995557,3.1 L447.975557,3.1 L448.745557,3.32 L450.175557,2.88 L450.835557,3.32 L452.045557,3.32 L452.705557,3.87 L453.475557,14.54 L454.685557,22.9 L454.685557,24.99 L455.235557,27.3 L455.235557,29.72 L471.185557,29.72 L471.515557,28.51 L470.855557,27.96 L471.185557,24.77 L471.515557,24.22 L471.515557,22.79 L471.185557,23.23 L471.515557,22.24 L471.515557,18.28 L471.185557,17.95 L471.735557,17.62 L472.285557,14.87 L472.285557,13.66 L471.845557,13.88 L472.395557,13.11 L471.845557,11.13 L471.515557,8.6 L471.845557,6.51 L472.285557,6.07 L472.615557,2.66 L473.275557,2.66 L473.715557,1.89 L477.455557,1.89 L478.225557,3.1 L478.225557,22.02 L477.895557,24.55 L477.565557,24.99 L477.895557,25.65 L477.895557,32.47 L478.775557,32.8 L478.555557,33.13 L478.775557,34.67 L479.985557,35 L479.105557,35.66 L478.445557,35.66 L477.895557,36.65 L477.895557,37.42 L477.565557,37.86 L477.895557,38.19 L477.895557,40.94 L477.565557,41.71 L477.895557,42.81 L477.895557,45.01 L477.565557,45.56 L477.565557,47.43 L478.115557,47.43 L477.565557,48.2 L478.115557,48.53 L477.455557,48.97 L477.895557,49.41 L477.895557,50.07 L477.565557,49.52 L477.895557,52.38 L477.895557,58.98 L478.225557,59.2 L477.345557,59.97 L477.895557,60.52 L478.225557,62.94 L477.895557,63.82 L477.895557,70.09 L478.445557,71.19 L477.895557,73.83 L477.565557,73.17 L477.345557,73.83 L477.015557,74.05 L476.795557,75.26 L475.915557,74.6 L475.915557,73.17 L475.475557,73.61 L474.815557,76.14 L473.825557,73.17 L473.275557,73.61 L473.055557,72.4 L472.615557,72.18 L473.165557,71.74 L472.175557,71.52 L472.285557,69.76 L472.615557,69.1 L472.285557,68.88 L472.175557,67.23 L472.395557,66.79 L472.175557,66.35 L472.175557,63.49 L471.515557,63.82 L471.515557,66.13 L471.185557,69.54 L471.955557,70.97 L471.515557,71.85 L471.075557,74.82 L470.635557,74.05 L469.645557,74.6 L468.875557,73.83 L468.875557,69.32 L469.315557,68.55 L468.875557,67.89 L468.875557,63.27 L469.205557,62.61 L469.205557,58.76 L468.655557,57.33 L468.875557,56.34 L468.655557,54.91 L468.875557,54.58 L468.435557,53.37 L469.645557,52.49 L469.645557,51.17 L468.875557,50.29 L468.655557,47.1 L468.325557,46.55 L468.875557,45.56 L469.535557,45.56 L469.645557,44.35 L469.205557,43.91 L469.205557,38.41 L468.655557,37.42 L469.205557,37.2 L469.205557,35.99 L464.585557,36.65 L463.155557,36.43 L455.565557,36.43 L456.115557,38.41 L456.555557,42.04 L456.115557,43.47 L456.445557,43.91 L456.665557,46.66 L456.445557,47.76 L456.775557,48.97 L456.775557,58.43 L457.435557,59.42 L456.665557,61.4 L457.435557,63.49 L456.775557,65.03 L457.435557,65.8 L456.775557,66.68 L457.435557,67.12 L456.775557,67.23 L457.655557,69.21 L457.215557,71.19 L457.435557,71.52 L457.215557,72.4 L457.215557,73.83 L456.665557,75.04 L457.215557,75.04 L457.215557,75.7 L456.445557,76.91 L456.445557,77.46 L456.665557,77.79 L456.445557,78.67 L457.215557,78.23 L456.555557,79.11 L455.785557,81.53 L455.455557,80.32 L454.905557,80.32 L455.235557,80.1 L455.235557,79.55 L454.685557,79.88 L454.905557,79.33 L454.685557,78.23 L454.245557,78.01 L454.245557,79.88 L454.025557,80.76 L453.585557,79.11 L453.145557,79.11 L453.365557,77.24 L453.145557,77.79 L452.705557,77.79 L452.925557,76.91 L451.605557,76.91 L452.045557,76.14 L452.265557,75.04 L451.605557,75.04 L451.495557,72.18 L450.835557,73.17 L451.495557,73.61 L451.495557,76.03 L450.505557,75.04 L450.285557,76.47 L449.955557,76.14 L449.295557,77.24 L449.185557,76.03 L448.745557,75.7 L448.525557,74.05 L448.085557,73.61 L448.085557,71.63 L449.295557,69.76 L448.745557,69.76 L448.525557,69.32 L449.295557,68.11 L449.295557,67.23 L448.745557,68.11 L448.085557,67.56 L448.085557,65.14 L447.645557,63.27 L447.645557,56.12 L447.975557,55.68 L447.975557,53.92 L448.415557,52.27 L447.975557,51.72 L447.975557,47.43 L448.525557,47.1 L449.075557,47.32 L449.295557,46 L449.955557,46 L450.285557,44.24 L449.295557,44.57 L449.295557,43.91 L448.525557,43.47 L448.745557,44.35 L448.525557,44.9 L448.525557,46 L448.085557,45.78 L447.975557,44.9 L447.975557,43.14 L448.635557,42.59 L448.085557,42.26 L447.645557,42.48 L448.085557,40.28 L448.745557,39.73 L449.515557,39.73 L449.185557,39.07 L448.525557,39.07 L448.085557,38.63 L447.645557,40.06 L447.645557,38.41 L449.185557,36.43 L449.185557,36.87 L449.295557,36.1 L448.745557,35.66 L448.195557,35.66 L447.975557,37.86 Z M471.185557,57.11 L470.855557,57.33 L471.295557,58.32 L471.845557,57.77 L471.845557,55.68 L471.185557,55.68 L471.185557,57.11 Z M471.515557,63.49 L472.175557,62.94 L472.175557,61.62 L471.845557,61.4 L471.845557,60.52 L471.185557,60.63 L471.515557,60.85 L471.185557,61.18 L471.185557,62.28 L471.955557,62.83 L471.515557,63.49 Z M450.505557,66.13 L451.165557,66.13 L451.165557,65.47 L450.835557,65.14 L451.165557,65.03 L450.835557,64.81 L450.835557,63.82 L450.505557,64.26 L450.505557,66.13 Z M472.285557,74.38 L472.285557,73.83 L472.615557,74.05 L473.715557,73.83 L473.275557,75.04 L472.285557,74.38 Z M450.835557,70.31 L450.835557,72.62 L451.495557,71.74 L450.835557,70.31 Z M450.835557,69.1 L451.165557,69.32 L451.605557,68.55 L451.165557,68.33 L450.835557,68.55 L450.835557,69.1 Z M448.745557,38.19 L449.185557,38.63 L449.515557,36.98 L448.745557,38.19 Z M450.835557,43.69 L450.835557,44.9 L451.275557,44.9 L450.835557,43.69 Z M452.265557,79 L452.815557,79.55 L452.045557,79.55 L452.265557,79 Z M449.295557,34.78 L449.185557,35.22 L449.735557,34.78 L449.295557,34.34 L449.295557,34.78 Z M450.505557,53.92 L450.505557,54.47 L451.165557,55.13 L450.505557,53.92 Z M457.215557,76.47 L457.435557,76.14 L457.215557,77.79 L457.215557,76.47 Z M469.645557,61.62 L469.645557,62.28 L470.085557,62.06 L469.645557,61.62 Z M470.525557,65.91 L470.855557,65.14 L470.855557,64.26 L470.525557,65.91 Z M479.765557,34.34 L479.325557,33.9 L479.985557,33.9 L479.765557,34.34 Z M471.515557,53.37 L471.845557,53.92 L472.175557,53.7 L471.515557,53.37 Z M449.845557,43.36 L450.285557,42.81 L450.285557,42.26 L449.845557,43.36 Z M451.165557,66.68 L451.165557,67.23 L451.495557,66.35 L451.165557,66.68 Z M450.505557,55.9 L450.505557,56.34 L450.835557,56.78 L450.505557,55.9 Z M456.775557,73.5 L456.665557,73.83 L456.775557,74.6 L456.775557,73.5 Z M511.451668,72.51 L511.121668,73.06 L511.451668,73.5 L510.901668,73.72 L510.241668,75.15 L510.241668,76.58 L509.581668,75.7 L509.581668,74.6 L509.251668,74.82 L509.141668,76.36 L508.701668,74.82 L508.261668,75.15 L508.151668,75.92 L507.821668,74.82 L507.601668,75.15 L507.601668,76.58 L507.381668,76.91 L507.161668,76.58 L506.831668,77.46 L506.281668,77.46 L505.841668,76.91 L505.511668,77.13 L501.111668,53.37 L500.891668,54.47 L500.121668,55.13 L499.461668,56.12 L498.251668,56.78 L496.161668,58.76 L495.281668,60.63 L494.291668,64.04 L494.291668,64.59 L493.521668,66.13 L494.291668,66.13 L494.291668,67.78 L494.071668,67.45 L493.301668,68 L493.301668,70.09 L492.971668,70.86 L492.971668,72.29 L492.531668,72.29 L492.531668,73.5 L492.201668,75.37 L492.201668,77.13 L491.541668,78.23 L491.101668,76.69 L490.771668,78.01 L490.441668,76.91 L489.781668,76.91 L490.221668,75.7 L490.771668,75.15 L490.771668,74.16 L490.221668,74.16 L490.111668,73.5 L489.671668,74.6 L490.111668,75.37 L489.561668,75.37 L489.121668,78.01 L488.791668,77.68 L488.571668,76.58 L488.131668,77.13 L488.131668,76.36 L487.801668,76.58 L487.471668,75.92 L487.801668,75.7 L487.801668,74.16 L488.351668,74.16 L488.571668,73.72 L489.011668,74.71 L489.561668,73.06 L488.791668,72.29 L488.791668,71.41 L488.131668,70.97 L488.131668,69.87 L488.571668,68.88 L488.571668,68 L489.121668,67.45 L489.121668,64.59 L489.341668,65.03 L489.781668,64.59 L490.221668,62.5 L490.111668,62.17 L490.551668,60.74 L490.221668,60.3 L489.561668,61.62 L489.781668,60.63 L489.451668,59.75 L488.791668,59.75 L488.351668,57.66 L488.351668,54.91 L488.791668,54.25 L488.351668,54.25 L488.571668,53.92 L488.791668,53.15 L489.121668,52.82 L489.121668,50.29 L489.781668,49.3 L489.231668,48.75 L489.781668,45.67 L490.111668,45.12 L490.221668,42.92 L490.771668,42.26 L490.441668,41.49 L491.211668,40.61 L491.541668,41.71 L492.421668,40.61 L492.861668,40.61 L493.411668,39.95 L492.971668,37.42 L492.421668,36.87 L492.531668,37.75 L492.531668,39.73 L491.981668,39.73 L492.421668,39.18 L492.421668,38.3 L491.981668,38.08 L491.981668,37.42 L491.541668,37.42 L491.541668,33.13 L491.761668,31.81 L492.201668,31.15 L492.201668,28.95 L491.981668,27.41 L492.421668,27.19 L492.641668,25.98 L492.421668,21.36 L492.861668,21.36 L492.861668,18.94 L493.301668,16.08 L493.301668,14.32 L494.071668,12.56 L494.071668,6.84 L494.511668,6.29 L494.511668,5.74 L494.071668,5.96 L494.291668,3.98 L494.291668,2.66 L494.841668,1.45 L497.041668,1.45 L497.261668,0.9 L497.591668,1.12 L498.031668,1.12 L498.471668,1.45 L500.561668,1.67 L501.111668,2.33 L502.211668,2.33 L503.091668,3.1 L503.091668,4.31 L504.081668,8.27 L504.081668,10.47 L504.851668,17.95 L504.851668,20.15 L505.071668,20.81 L505.071668,23.78 L505.511668,23.56 L505.291668,24.11 L505.291668,25.65 L505.731668,25.65 L505.291668,26.53 L505.511668,27.19 L505.511668,27.96 L505.731668,29.17 L505.841668,30.82 L506.281668,30.82 L506.391668,33.46 L506.721668,34.45 L506.721668,36.54 L507.161668,37.75 L507.381668,39.4 L507.161668,39.95 L507.381668,40.61 L507.381668,41.49 L507.821668,42.04 L507.601668,45.34 L508.371668,46.55 L508.151668,48.53 L508.701668,48.75 L508.261668,49.96 L508.261668,51.94 L508.811668,52.6 L509.141668,53.37 L509.251668,54.91 L509.801668,55.46 L509.801668,56.23 L509.471668,57.22 L509.911668,61.51 L510.351668,61.07 L510.351668,64.04 L510.901668,63.71 L510.461668,65.69 L511.121668,66.46 L511.451668,67.45 L511.121668,69.87 L510.901668,70.64 L510.901668,71.41 L510.351668,71.41 L510.571668,71.96 L511.451668,70.86 L511.891668,71.96 L512.441668,71.63 L511.891668,73.06 L511.451668,73.5 L511.451668,72.51 Z M500.561668,51.17 L501.111668,51.72 L498.691668,34.89 L498.251668,35.99 L497.591668,40.94 L497.701668,41.49 L497.261668,43.36 L497.261668,44.79 L496.931668,45.89 L496.711668,48.75 L496.161668,50.95 L496.161668,51.5 L498.691668,51.72 L500.561668,51.17 Z M486.701668,68.44 L487.251668,67.34 L486.811668,65.36 L487.251668,65.36 L487.471668,64.92 L488.131668,65.36 L488.131668,64.26 L488.791668,64.26 L488.351668,66.46 L487.911668,67.12 L488.241668,68.77 L487.911668,69.54 L487.031668,69.87 L486.701668,68.44 Z M487.801668,63.16 L487.911668,62.17 L487.911668,60.3 L489.121668,60.74 L489.121668,62.83 L487.911668,63.71 L487.801668,63.16 Z M486.151668,74.6 L485.821668,73.72 L486.261668,73.06 L486.261668,71.85 L487.471668,69.87 L487.031668,72.51 L486.701668,72.95 L487.141668,74.05 L486.151668,74.6 Z M488.351668,79.11 L488.791668,79.11 L488.571668,80.54 L488.131668,80.54 L488.351668,79.11 Z M489.781668,65.91 L490.111668,66.13 L490.551668,65.36 L490.551668,64.92 L490.111668,65.58 L489.781668,65.03 L489.561668,66.46 L489.781668,65.91 Z M487.911668,78.01 L488.571668,77.46 L488.351668,78.78 L487.911668,78.78 L487.911668,78.01 Z M490.771668,49.3 L490.221668,49.96 L490.771668,50.29 L490.771668,49.3 Z M491.101668,66.13 L491.541668,66.13 L491.541668,64.92 L491.101668,66.13 Z M510.021668,72.51 L510.021668,73.94 L510.241668,73.5 L510.021668,72.51 Z M490.771668,71.96 L490.771668,72.84 L490.991668,72.51 L490.771668,71.96 Z M491.211668,38.52 L491.211668,39.18 L490.991668,39.73 L491.211668,38.52 Z M524.10778,78.12 L524.32778,77.35 L524.32778,76.91 L524.10778,77.35 L523.11778,75.92 L522.56778,76.14 L522.34778,74.93 L521.57778,75.15 L521.90778,73.5 L521.57778,72.18 L521.57778,69.43 L521.13778,70.42 L521.13778,71.19 L520.58778,71.19 L520.58778,71.74 L521.13778,71.74 L521.13778,73.5 L520.14778,74.49 L519.92778,72.73 L518.93778,72.73 L518.93778,72.18 L519.48778,70.64 L518.93778,70.97 L519.48778,69.65 L519.15778,68.77 L519.48778,68.33 L519.15778,68 L519.15778,65.69 L519.48778,65.03 L519.48778,64.26 L518.93778,64.59 L519.15778,63.27 L519.48778,62.61 L519.15778,60.85 L519.15778,59.64 L518.71778,57.88 L519.15778,56.12 L519.15778,54.69 L518.71778,54.69 L518.38778,51.17 L517.72778,33.46 L517.39778,32.58 L517.17778,28.4 L517.50778,27.96 L517.17778,25.76 L517.17778,22.9 L516.40778,17.95 L516.40778,14.43 L516.18778,13.33 L516.18778,10.03 L512.99778,11.24 L511.01778,10.58 L509.80778,9.59 L508.15778,7.5 L507.05778,6.95 L507.05778,5.85 L507.60778,4.97 L508.26778,4.64 L508.59778,4.09 L508.81778,4.42 L509.14778,4.09 L513.98778,3.1 L515.19778,3.1 L516.18778,2.66 L518.16778,2.66 L520.58778,2 L521.90778,2 L522.12778,1.67 L523.11778,1.67 L523.11778,2.11 L523.88778,1.45 L524.65778,1.45 L524.76778,2 L526.08778,1.34 L526.08778,2 L530.04778,2 L531.47778,2.99 L531.91778,2.66 L531.91778,3.1 L533.01778,2.66 L532.46778,3.43 L533.23778,3.1 L532.90778,3.54 L534.22778,3.87 L534.55778,5.08 L535.32778,5.08 L535.65778,6.4 L536.09778,6.73 L535.43778,7.17 L535.21778,7.61 L534.44778,7.61 L534.00778,7.28 L530.04778,7.28 L529.05778,7.83 L528.50778,7.83 L528.83778,7.61 L524.65778,7.61 L523.66778,8.6 L523.88778,10.03 L524.32778,17.51 L524.65778,17.95 L524.76778,21.91 L525.09778,22.35 L525.09778,27.08 L525.31778,27.52 L525.31778,31.26 L525.75778,39.62 L526.08778,40.39 L526.08778,45.01 L526.30778,45.56 L526.30778,50.18 L526.52778,50.51 L526.52778,53.26 L526.74778,53.92 L526.74778,56.12 L526.52778,56.67 L526.74778,58.1 L527.07778,58.65 L526.30778,61.4 L527.07778,61.4 L527.07778,64.04 L526.74778,65.25 L527.07778,66.02 L527.07778,67.78 L526.74778,68.33 L527.07778,68.44 L526.30778,69.76 L527.07778,69.98 L527.07778,70.42 L526.52778,71.19 L526.52778,73.61 L525.75778,75.92 L526.30778,75.37 L525.97778,77.24 L524.65778,77.9 L524.32778,79.11 L524.10778,78.12 Z M521.02778,64.15 L521.57778,65.69 L521.57778,63.27 L521.35778,62.83 L521.02778,64.15 Z M521.24778,68.66 L521.57778,68.99 L522.01778,67.89 L521.24778,68.66 Z M520.14778,71.74 L519.15778,72.18 L519.59778,72.18 L520.14778,71.74 Z M550.513891,57.88 L549.963891,56.12 L549.743891,57 L549.303891,56.23 L547.983891,55.57 L547.103891,57 L545.453891,57 L544.243891,55.79 L543.693891,47.65 L544.243891,42.7 L545.123891,39.18 L545.453891,38.96 L546.333891,36.32 L546.333891,35.55 L548.313891,32.36 L548.973891,32.03 L551.393891,27.19 L553.373891,25.21 L553.373891,24.33 L553.703891,24.11 L553.923891,23.45 L556.893891,19.27 L559.093891,13.99 L559.093891,11.24 L558.323891,9.15 L557.443891,8.05 L555.023891,8.05 L552.823891,8.93 L553.153891,8.27 L552.273891,8.27 L551.393891,9.15 L551.613891,9.48 L549.963891,11.24 L549.193891,11.46 L548.863891,12.01 L547.433891,13.22 L547.103891,14.1 L545.673891,16.08 L545.123891,17.29 L544.573891,17.84 L543.473891,20.81 L543.143891,21.14 L543.143891,20.37 L542.593891,20.59 L542.593891,19.82 L542.153891,19.82 L541.163891,21.8 L538.853891,20.92 L538.193891,20.92 L537.973891,20.59 L537.313891,20.92 L536.763891,19.82 L536.213891,19.82 L536.213891,19.27 L535.113891,19.82 L535.113891,17.51 L537.313891,12.67 L537.313891,12.01 L539.403891,9.81 L540.063891,8.38 L541.603891,7.61 L542.263891,6.4 L545.123891,4.42 L545.563891,3.65 L546.553891,2.99 L546.883891,3.21 L547.763891,2.33 L554.583891,2.33 L555.683891,3.21 L557.113891,3.21 L558.873891,4.09 L560.633891,4.09 L561.403891,5.3 L562.283891,5.3 L564.373891,6.73 L564.483891,7.5 L566.023891,8.49 L566.573891,10.58 L567.123891,11.46 L568.003891,11.46 L568.223891,14.1 L568.223891,16.96 L567.673891,18.94 L566.793891,19.6 L566.793891,20.15 L567.123891,20.37 L565.913891,21.8 L565.693891,21.47 L565.143891,23.45 L563.163891,26.97 L562.283891,27.85 L562.283891,28.62 L559.423891,31.59 L558.543891,33.24 L558.543891,34.23 L557.113891,35 L557.663891,35 L557.663891,35.44 L556.563891,36.87 L554.803891,40.61 L553.373891,46.66 L553.153891,46.99 L553.153891,48.97 L552.493891,48.97 L552.493891,49.63 L552.823891,50.07 L552.823891,52.05 L553.373891,52.05 L553.373891,55.57 L552.823891,56.45 L552.823891,57 L551.833891,57 L550.953891,58.32 L550.513891,57.88 Z M544.463891,77.79 L544.023891,76.47 L544.023891,68.11 L544.573891,67.01 L545.453891,66.35 L545.673891,67.45 L546.553891,67.23 L548.093891,67.23 L548.643891,66.35 L548.863891,67.23 L549.743891,67.23 L550.183891,67.01 L550.843891,67.56 L553.153891,67.78 L552.603891,68.44 L553.153891,69.87 L553.703891,69.54 L553.153891,70.75 L552.603891,71.19 L553.153891,72.73 L552.493891,73.83 L552.273891,75.92 L551.943891,75.15 L550.843891,77.35 L549.743891,77.35 L548.973891,78.01 L547.983891,77.02 L547.763891,78.23 L547.433891,77.9 L546.333891,78.45 L544.463891,77.79 Z M541.933891,20.92 L542.373891,21.8 L541.933891,21.47 L541.933891,20.92 Z" id="Should-I-Say-That?" fill="#FFFFFF"></path>
    </g>
</svg>