<?xml version="1.0" encoding="utf-8"?>
<!-- Generator: Adobe Illustrator 21.1.0, SVG Export Plug-In . SVG Version: 6.00 Build 0)  -->
<svg version="1.1" id="Layer_1" xmlns="http://www.w3.org/2000/svg" xmlns:xlink="http://www.w3.org/1999/xlink" x="0px" y="0px"
	 viewBox="0 0 70 70" style="enable-background:new 0 0 70 70;" xml:space="preserve">
<style type="text/css">
	.st0{fill:#0D47A1;fill-opacity:0.5;}
	.st1{fill:#FFCE07;}
</style>
<desc>Made with illustrio</desc>
<g>
	<path class="st0" d="M15.5,13.2l-0.6-0.6v2.5c0,0.3,0.3,0.6,0.6,0.6h3l-0.6-0.6v2.5c0,0.3,0.3,0.6,0.6,0.6s0.6-0.3,0.6-0.6v-2.5
		c0-0.3-0.3-0.6-0.6-0.6h-3l0.6,0.6v-2.5c0-0.3-0.3-0.6-0.6-0.6h-3c-0.3,0-0.6,0.3-0.6,0.6s0.3,0.6,0.6,0.6
		C12.5,13.2,15.5,13.2,15.5,13.2z M39.9,62l0.6-0.6h-2c-0.3,0-0.6,0.3-0.6,0.6v2l0.6-0.6h-2c-0.3,0-0.6,0.3-0.6,0.6
		c0,0.3,0.3,0.6,0.6,0.6h2c0.3,0,0.6-0.3,0.6-0.6v-2l-0.6,0.6h2c0.3,0,0.6-0.3,0.6-0.6v-2c0-0.3-0.3-0.6-0.6-0.6s-0.6,0.3-0.6,0.6
		V62z M22,53.3c0.2-0.3,0.1-0.7-0.1-0.9c-0.3-0.2-0.7-0.1-0.9,0.1L18.5,56c-0.2,0.3-0.1,0.7,0.1,0.9c0.3,0.2,0.7,0.1,0.9-0.1
		L22,53.3z M56.2,56.2c0.3,0.2,0.7,0.2,0.9-0.1s0.2-0.7-0.1-0.9l-2.6-2.3c-0.3-0.2-0.7-0.2-0.9,0.1s-0.2,0.7,0.1,0.9L56.2,56.2z
		 M13.1,43.1c0-1.9-1.5-3.4-3.4-3.4s-3.4,1.5-3.4,3.4s1.5,3.4,3.4,3.4S13.1,45,13.1,43.1z M7.6,43.1c0-1.2,1-2.1,2.1-2.1
		s2.1,1,2.1,2.1c0,1.2-1,2.1-2.1,2.1S7.6,44.3,7.6,43.1z"/>
	<ellipse class="st0" cx="28" cy="7.1" rx="1" ry="1"/>
	<ellipse class="st0" cx="17.2" cy="58.7" rx="0.8" ry="0.8"/>
	<ellipse class="st0" cx="63.2" cy="28.6" rx="0.8" ry="0.8"/>
	<ellipse class="st0" cx="59.8" cy="44.6" rx="1.2" ry="1.3"/>
	<path class="st0" d="M60.6,23.2c0-1.5-1.2-2.6-2.6-2.6s-2.6,1.2-2.6,2.6c0,1.5,1.2,2.6,2.6,2.6S60.6,24.6,60.6,23.2z M56.6,23.2
		c0-0.8,0.6-1.4,1.4-1.4s1.4,0.6,1.4,1.4s-0.6,1.4-1.4,1.4S56.6,23.9,56.6,23.2z M46.5,8.5c0.1-0.3,0-0.7-0.4-0.8
		c-0.3-0.1-0.7,0-0.8,0.4l-1.4,3.7c-0.1,0.3,0,0.7,0.4,0.8c0.3,0.1,0.7,0,0.8-0.4L46.5,8.5z M8.1,26.5c-0.3,0-0.6,0.2-0.7,0.6
		c0,0.3,0.2,0.7,0.6,0.7l2.4,0.2c0.3,0,0.6-0.2,0.7-0.6c0-0.3-0.2-0.7-0.6-0.7L8.1,26.5z"/>
	<g>
		<g>
			<path class="st1" d="M37.7,34.2c-0.1,0.1-0.1,0.2-0.1,0.3c0,3.2,2.6,5.8,5.8,5.8s5.8-2.6,5.8-5.8c0-0.1,0-0.2-0.1-0.3l-0.4-0.8
				l0,0L44.3,24c0,0,0,0-0.1-0.1l1.3-0.2c0.4-0.1,0.7-0.5,0.6-0.9c-0.1-0.4-0.5-0.7-0.9-0.6l-6.4,1.2c-0.4-1-1.3-1.8-2.3-2.1v-0.5
				c0-0.4-0.3-0.8-0.8-0.8c-0.4,0-0.7,0.3-0.7,0.8v0.3c-1.9,0.2-3.5,1.8-3.5,3.8l0,0l-6.7,1.3c-0.4,0.1-0.7,0.5-0.6,0.9
				s0.3,0.6,0.7,0.6H25l0.9-0.2l-5,9.7c-0.1,0.1-0.1,0.2-0.1,0.3c0,3.2,2.6,5.8,5.8,5.8s5.8-2.6,5.8-5.8c0-0.1,0-0.2-0.1-0.3
				L32,36.4l0,0l-4.4-9.3l4.2-0.8c0.5,1.3,1.7,2.2,3.2,2.3v16.8h-5.2c-0.2,0-0.6,0-0.7,0.2l-2.9,2.8c-0.2,0.2-0.3,0.7-0.2,1
				c0.1,0.3,0.4,0.6,0.7,0.6H45c0.3,0,0.6-0.4,0.7-0.7c0.1-0.3,0.1-0.7-0.2-0.9l-2.9-2.8c-0.1-0.1-0.5-0.2-0.7-0.2h-5.4v-17
				c1.5-0.5,2.6-1.9,2.6-3.6l3.7-0.7L37.7,34.2L37.7,34.2z M28.2,40.9h-3c-0.4,0-0.8-0.3-0.8-0.8s0.3-0.8,0.8-0.8h3
				c0.4,0,0.8,0.3,0.8,0.8S28.7,40.9,28.2,40.9L28.2,40.9z M30.1,36.3h-6.8l3.5-6.9L30.1,36.3L30.1,36.3z M36.9,24.8
				c0,0.9-0.7,1.7-1.7,1.7c-0.9,0-1.7-0.7-1.7-1.7c0-0.9,0.7-1.7,1.7-1.7S36.9,23.9,36.9,24.8L36.9,24.8z M45,37.8h-3
				c-0.4,0-0.8-0.3-0.8-0.8c0-0.4,0.3-0.8,0.8-0.8h3c0.4,0,0.8,0.3,0.8,0.8C45.7,37.5,45.4,37.8,45,37.8L45,37.8z M46.8,33.3H40
				l3.5-6.9L46.8,33.3L46.8,33.3z"/>
		</g>
	</g>
</g>
</svg>
