<?xml version="1.0" encoding="utf-8"?>
<!-- Generator: Adobe Illustrator 21.1.0, SVG Export Plug-In . SVG Version: 6.00 Build 0)  -->
<svg version="1.1" id="Layer_1" xmlns="http://www.w3.org/2000/svg" xmlns:xlink="http://www.w3.org/1999/xlink" x="0px" y="0px"
	 viewBox="0 0 70 70" style="enable-background:new 0 0 70 70;" xml:space="preserve">
<style type="text/css">
	.st0{fill:#F44336;fill-opacity:0.5;}
	.st1{fill:#FFCE07;}
</style>
<desc>Made with illustrio</desc>
<g>
	<path class="st0" d="M15.5,13.2l-0.6-0.6v2.5c0,0.3,0.3,0.6,0.6,0.6h3l-0.6-0.6v2.5c0,0.3,0.3,0.6,0.6,0.6s0.6-0.3,0.6-0.6v-2.5
		c0-0.3-0.3-0.6-0.6-0.6h-3l0.6,0.6v-2.5c0-0.3-0.3-0.6-0.6-0.6h-3c-0.3,0-0.6,0.3-0.6,0.6c0,0.3,0.3,0.6,0.6,0.6H15.5z M39.9,62
		l0.6-0.6h-2c-0.3,0-0.6,0.3-0.6,0.6v2l0.6-0.6h-2c-0.3,0-0.6,0.3-0.6,0.6s0.3,0.6,0.6,0.6h2c0.3,0,0.6-0.3,0.6-0.6v-2l-0.6,0.6h2
		c0.3,0,0.6-0.3,0.6-0.6v-2c0-0.3-0.3-0.6-0.6-0.6s-0.6,0.3-0.6,0.6V62z M22,53.3c0.2-0.3,0.1-0.7-0.1-0.9c-0.3-0.2-0.7-0.1-0.9,0.1
		l-2.5,3.5c-0.2,0.3-0.1,0.7,0.1,0.9c0.3,0.2,0.7,0.1,0.9-0.1L22,53.3z M56.2,56.2c0.3,0.2,0.7,0.2,0.9-0.1s0.2-0.7-0.1-0.9
		l-2.6-2.3c-0.3-0.2-0.7-0.2-0.9,0.1s-0.2,0.7,0.1,0.9L56.2,56.2z M13.1,43.1c0-1.9-1.5-3.4-3.4-3.4s-3.4,1.5-3.4,3.4
		c0,1.9,1.5,3.4,3.4,3.4S13.1,45,13.1,43.1z M7.6,43.1c0-1.2,1-2.1,2.1-2.1s2.1,1,2.1,2.1c0,1.2-1,2.1-2.1,2.1S7.6,44.3,7.6,43.1z"
		/>
	<ellipse class="st0" cx="28" cy="7.1" rx="1" ry="1"/>
	<ellipse class="st0" cx="17.2" cy="58.7" rx="0.8" ry="0.8"/>
	<ellipse class="st0" cx="63.2" cy="28.6" rx="0.8" ry="0.8"/>
	<ellipse class="st0" cx="59.8" cy="44.6" rx="1.2" ry="1.3"/>
	<path class="st0" d="M60.6,23.2c0-1.5-1.2-2.6-2.6-2.6s-2.6,1.2-2.6,2.6c0,1.5,1.2,2.6,2.6,2.6S60.6,24.6,60.6,23.2z M56.6,23.2
		c0-0.8,0.6-1.4,1.4-1.4s1.4,0.6,1.4,1.4s-0.6,1.4-1.4,1.4S56.6,23.9,56.6,23.2z M46.5,8.5c0.1-0.3,0-0.7-0.4-0.8
		c-0.3-0.1-0.7,0-0.8,0.4l-1.4,3.7c-0.1,0.3,0,0.7,0.4,0.8c0.3,0.1,0.7,0,0.8-0.4L46.5,8.5z M8.1,26.5c-0.3,0-0.6,0.2-0.7,0.6
		c0,0.3,0.2,0.7,0.6,0.7l2.4,0.2c0.3,0,0.6-0.2,0.7-0.6c0-0.3-0.2-0.7-0.6-0.7L8.1,26.5z"/>
	<g>
		<g>
			<path class="st1" d="M37,45c0,1.1-0.9,2-2,2s-2-0.9-2-2s0.9-2,2-2S37,43.9,37,45z M43,31c0-4.4-3.6-8-8-8s-8,3.6-8,8
				c0,1.1,0.9,2,2,2s2-0.9,2-2c0-2.2,1.8-4,4-4s4,1.8,4,4s-1.8,4-4,4c-1.1,0-2,0.9-2,2v2c0,1.1,0.9,2,2,2s2-0.9,2-2v-0.3
				C40.4,37.8,43,34.7,43,31z"/>
		</g>
	</g>
</g>
</svg>
