<svg xmlns="http://www.w3.org/2000/svg" viewBox="0 0 421.05 217.78"><title>Asset 1</title><g id="Layer_2" data-name="Layer 2"><g id="Layer_1-2" data-name="Layer 1"><path d="M91.06,72c7-8,13.13-15.24,19.66-22.25,10.82-11.62,21.63-23.26,33-34.51C150.51,8.46,159.25,2.89,169.15.68c7.22-1.61,15.54,0,23.29.82,2.36.24,4,2.11,1.09,4.75a13.91,13.91,0,0,0-4,7.61,8.05,8.05,0,0,1-5,6.67A84.27,84.27,0,0,0,157,41.36c-7.67,8.65-15.93,16.9-23.63,25.53-6.89,7.72-13.45,15.66-19.92,23.65-.86,1.06-1.07,3.43-.28,4.42,4.68,5.82,9.78,11.38,14.66,17.08,2,2.28,3.72,4.69,5.51,7.07,4.21,5.58,8.46,11.14,12.55,16.79,8,11,16.19,21.89,23.63,33.16,4.71,7.15,9.15,14.65,11.92,22.47,2.35,6.63,1.71,13.86-4.5,19.58a4.11,4.11,0,0,0-.83,1.06c-3.67,6.83-4,7.18-10.87,2.44a44.66,44.66,0,0,1-10.54-10.66c-11-15.21-21.17-30.85-32.43-45.89-8.55-11.42-18.26-22.2-27.55-33.21C93.6,123.49,91.89,122.5,90,121c-3.28,4.27-6.46,8.18-9.37,12.25-9.22,12.92-18.34,25.89-27.5,38.84-.52.74-1.36,1.42-1.52,2.21-1.72,8.42-8,14.61-13.82,21-1.91,2.1-4.53,3.72-6.58,5.75-2.34,2.32-4.24,5-6.65,7.24-.91.86-3.15,1.78-4,1.4A72.73,72.73,0,0,1,10.69,204a50.93,50.93,0,0,1-8.36-6.56c-3.49-3.64-2.81-7.29.48-10.93a170.8,170.8,0,0,0,12-14.58c8.66-12,16.73-24.32,25.55-36.22,8.09-10.92,16.84-21.48,25.33-32.19,4.11-5.19,4.25-6.2-.46-11.46-13.18-14.71-26.39-29.41-39.81-44-4-4.36-8.73-8.25-13.18-12.3-2.79-2.54-2.29-5.37,1.49-6.23,8-1.83,16.2-3,24.08-5.18,5.2-1.41,8.55.61,11.35,3.37,9.94,9.8,19.67,19.76,29.28,29.8C82.68,61.9,86.42,66.63,91.06,72Z"/><path d="M335.62,0c10.42,1,21,.84,31.23,3.22,14.46,3.36,29.38,7,40.32,20.57,14.36,17.83,18.15,35.23,8.69,57.44-6.51,15.27-13.82,30.52-22.91,43.53-14.89,21.29-30.09,42.65-50.42,56.93-4,2.82-7.62,6.55-11.5,9.69-10.76,8.68-23,12-35.49,12.28-11.9.3-23.73-3.3-33.14-12.73-12.59-12.62-23.17-27.51-27.66-47.5a105.15,105.15,0,0,1,2.38-54.69c1.46-4.76,1.28-8.41-1.3-12.43a52.14,52.14,0,0,1-6-11.9c-3-9.42-.52-20.62,6.54-26.12a192.67,192.67,0,0,1,25.25-16.74c9.84-5.43,20.11-9.72,30.25-14.32C306,.81,320.7.08,335.62,0ZM311.56,29.76l-1,2.17c.66.35,1.51.49,2,1.07,4.92,6.44,4.38,7.54-2.29,10.93-3.29,1.67-7.47,5.06-8.2,8.59-.8,3.84-2.11,4.52-4.4,5.8-6.41,3.58-13,6.92-18.91,11.48-4.35,3.35-3.52,5.31.73,9a13.55,13.55,0,0,1,4.33,8.41c.11,2.06-2.74,5.38-4.85,6.38-7.81,3.72-11.17,11.46-12.69,20.28a47.1,47.1,0,0,0,.8,19.48c3.45,14.22,8.67,26.42,19.55,33.74,6.15,4.14,13,8.28,20.3,3.75,6.94-4.31,14.43-8.25,20.09-14.46,12-13.14,23.16-27.41,34.27-41.66a140.06,140.06,0,0,0,24.39-48.81c3.88-13.84,2.07-18.58-7.86-27.09C356.84,20.87,334.31,24.72,311.56,29.76Z"/></g></g></svg>